<svg width="34" height="35" viewBox="0 0 34 35" fill="none" xmlns="http://www.w3.org/2000/svg">
<path d="M26.1834 3.3625L25.9834 3.2925C24.8734 2.8925 23.6734 2.9125 22.5734 3.3525L21.5234 3.7625C18.7634 4.8625 15.7034 4.8925 12.9234 3.8325L11.5734 3.3225C10.4634 2.8925 9.24341 2.8925 8.14341 3.3225C5.22341 4.4325 3.53342 7.4725 4.11341 10.5425L7.55342 31.2425C7.63341 31.7425 7.92341 32.2025 8.35342 32.4825C8.65342 32.6825 9.00341 32.7925 9.37341 32.7925V32.8125C9.51341 32.8125 9.65341 32.7925 9.79341 32.7625L10.8934 32.5025C12.2234 32.1825 13.3534 31.2425 13.9134 29.9925L15.7334 25.9425C16.0034 25.3325 16.6234 24.9725 17.2434 25.0425H17.3334C17.7734 25.1325 18.1534 25.4325 18.3734 25.8525L20.5134 30.1225C21.1034 31.3025 22.1634 32.1425 23.4334 32.4525L24.6434 32.7425C25.1334 32.8525 25.6534 32.7625 26.0834 32.4825C26.5034 32.2025 26.8034 31.7525 26.8834 31.2525L30.3134 10.6925C30.9334 7.5325 29.1934 4.4525 26.1834 3.3625ZM5.28342 10.3325C4.80342 7.8225 6.18341 5.3425 8.56342 4.4325C8.97341 4.2725 9.41341 4.1925 9.85342 4.1925C10.2834 4.1825 10.7234 4.2625 11.1434 4.4225L12.5034 4.9425C15.5534 6.1025 18.9234 6.0725 21.9634 4.8625L23.0034 4.4425C23.8334 4.1125 24.7434 4.1025 25.5734 4.4025L25.7734 4.4725C28.2334 5.3625 29.6434 7.8725 29.1334 10.4625L28.3734 15.0125H22.0534V12.9725C22.0534 11.8825 21.1734 10.9925 20.0834 10.9925H14.3534C13.2634 10.9925 12.3834 11.8825 12.3834 12.9725V15.0125H6.06342L5.28342 10.3325ZM20.5534 12.9725V18.6925C20.5534 18.9525 20.3434 19.1725 20.0834 19.1725H14.3534C14.0934 19.1725 13.8834 18.9525 13.8834 18.6925V12.9725C13.8834 12.7025 14.0934 12.4925 14.3534 12.4925H20.0834C20.3434 12.4925 20.5534 12.7025 20.5534 12.9725ZM25.7034 31.0425C25.6734 31.2125 25.5734 31.3725 25.4134 31.4725C25.2734 31.5725 25.0834 31.6025 24.9034 31.5625L23.6934 31.2725C22.7734 31.0525 21.9934 30.4325 21.5634 29.5725L19.4134 25.3025C19.0334 24.5425 18.3434 24.0125 17.5434 23.8625C17.4834 23.8625 17.4334 23.8625 17.3734 23.8425C16.2334 23.7025 15.1334 24.3425 14.6534 25.4225L12.8334 29.4825C12.4234 30.3925 11.5934 31.0825 10.6234 31.3125L9.51341 31.5725C9.34341 31.6225 9.16341 31.5825 9.00341 31.4825C8.86341 31.3825 8.75342 31.2325 8.73342 31.0525L6.31342 16.5125H12.3834V18.6925C12.3834 19.7825 13.2634 20.6725 14.3534 20.6725H20.0834C21.1734 20.6725 22.0534 19.7825 22.0534 18.6925V16.5125H28.1234L25.7034 31.0425Z" fill="#797979"/>
</svg>
