<svg width="34" height="35" viewBox="0 0 34 35" fill="none" xmlns="http://www.w3.org/2000/svg">
<path d="M31.5834 23.1125L28.3634 16.3125L29.3034 10.6925C29.9234 7.5325 28.1934 4.4525 25.1734 3.3625L24.9834 3.2925C23.8734 2.8925 22.6634 2.9125 21.5634 3.3525L20.5234 3.7625C17.7634 4.8625 14.7034 4.8925 11.9234 3.8325L10.5634 3.3225C9.45344 2.8925 8.24344 2.8925 7.13344 3.3225C4.22344 4.4325 2.53344 7.4725 3.11344 10.5425L6.55344 31.2425C6.63344 31.7425 6.92344 32.2025 7.34344 32.4825C7.64344 32.6825 8.00344 32.7925 8.36344 32.7925V32.8125C8.50344 32.8125 8.64344 32.7925 8.78344 32.7625L9.88344 32.5025C11.2234 32.1825 12.3434 31.2425 12.9134 29.9925L14.7334 25.9425C14.9934 25.3325 15.6234 24.9725 16.2334 25.0425H16.3334C16.7634 25.1325 17.1534 25.4325 17.3634 25.8525L19.5134 30.1225C20.0934 31.3025 21.1534 32.1425 22.4234 32.4525L23.6334 32.7425C24.1234 32.8525 24.6534 32.7625 25.0734 32.4825C25.5034 32.2025 25.7934 31.7525 25.8734 31.2525L26.8034 25.6725C27.2234 26.2525 28.0034 26.4725 28.6734 26.1625L30.8734 25.1225C31.6234 24.7625 31.9434 23.8625 31.5834 23.1125ZM24.6934 31.0425C24.6634 31.2125 24.5634 31.3725 24.4134 31.4725C24.2634 31.5725 24.0834 31.6025 23.9034 31.5625L22.6934 31.2725C21.7634 31.0525 20.9834 30.4325 20.5634 29.5725L18.4134 25.3025C18.0334 24.5425 17.3334 24.0125 16.5334 23.8625C16.4834 23.8625 16.4234 23.8625 16.3734 23.8425C15.2334 23.7025 14.1334 24.3425 13.6434 25.4225L11.8234 29.4825C11.4134 30.3925 10.5834 31.0825 9.61344 31.3125L8.51344 31.5725C8.33344 31.6225 8.15344 31.5825 8.00344 31.4825C7.85344 31.3825 7.75344 31.2325 7.72344 31.0525L4.28344 10.3325C3.80344 7.8225 5.18344 5.3425 7.55344 4.4325C7.97344 4.2725 8.41344 4.1925 8.85344 4.1925C9.28344 4.1825 9.72344 4.2625 10.1334 4.4225L11.4934 4.9425C14.5534 6.1025 17.9134 6.0725 20.9534 4.8625L22.0034 4.4425C22.8234 4.1125 23.7334 4.1025 24.5734 4.4025L24.7634 4.4725C27.2234 5.3625 28.6434 7.8725 28.1334 10.4625L27.4734 14.4225L25.0134 9.2325C24.6634 8.4825 23.7634 8.1525 23.0134 8.5025L15.1734 12.2125C14.1134 12.7125 13.6734 13.9925 14.1634 15.0325L14.4634 15.6725C14.6934 16.1525 15.0634 16.4925 15.5034 16.6925C15.3834 17.1625 15.4134 17.6725 15.6334 18.1425L15.9334 18.7725C16.1534 19.2425 16.5334 19.5925 16.9734 19.7925C16.8534 20.2625 16.8834 20.7725 17.1034 21.2425L17.4034 21.8825C17.9034 22.9325 19.1734 23.3925 20.2234 22.8925L24.5034 20.8625L25.9034 23.8225L24.6934 31.0425ZM18.1134 18.4225C17.8034 18.5725 17.4334 18.4225 17.2934 18.1325L16.9934 17.5025C16.8434 17.2025 16.9934 16.8225 17.2934 16.6825L21.5634 14.6525L22.3934 16.4025L18.1134 18.4225ZM23.0334 17.7525L23.8634 19.5125L19.5834 21.5325C19.2734 21.6825 18.9034 21.5425 18.7634 21.2425L18.4634 20.6025C18.3134 20.3025 18.4434 19.9225 18.7534 19.7825L23.0334 17.7525ZM16.6434 15.3225C16.3434 15.4725 15.9634 15.3325 15.8234 15.0325L15.5234 14.3925C15.3734 14.0925 15.5134 13.7125 15.8134 13.5725L20.0934 11.5425L20.9234 13.3025L16.6434 15.3225ZM28.0234 24.8025L21.4534 10.9025L23.6634 9.8725L30.2334 23.7625L28.0234 24.8025Z" fill="#797979"/>
</svg>
