<svg width="34" height="35" viewBox="0 0 34 35" fill="none" xmlns="http://www.w3.org/2000/svg">
<path d="M9.65004 32.785C9.29004 32.785 8.93004 32.675 8.63004 32.475C8.21004 32.195 7.92004 31.745 7.84004 31.245L4.40004 10.545C3.82004 7.475 5.51004 4.435 8.43004 3.315C9.53004 2.895 10.75 2.895 11.86 3.315L13.22 3.835C16 4.885 19.06 4.865 21.82 3.765L22.86 3.345C23.96 2.915 25.17 2.885 26.27 3.295L26.47 3.365C29.48 4.455 31.22 7.535 30.6 10.695L27.17 31.255C27.09 31.755 26.8 32.205 26.37 32.485C25.94 32.765 25.42 32.855 24.93 32.745L23.72 32.455C22.45 32.155 21.39 31.305 20.8 30.135L18.65 25.865C18.44 25.445 18.05 25.135 17.62 25.065H17.53C16.91 24.985 16.29 25.345 16.02 25.945L14.2 30.005C13.64 31.255 12.51 32.195 11.18 32.505L10.08 32.765C9.94004 32.795 9.80004 32.815 9.66004 32.815V32.795L9.65004 32.785ZM10.14 4.185C9.70004 4.185 9.26004 4.265 8.85004 4.425C6.47004 5.335 5.09004 7.815 5.57004 10.325L9.01004 31.035C9.04004 31.215 9.14004 31.365 9.29004 31.465C9.44004 31.565 9.62004 31.605 9.80004 31.555L10.9 31.295C11.87 31.065 12.7 30.375 13.11 29.465L14.93 25.405C15.42 24.325 16.51 23.685 17.66 23.825C17.71 23.825 17.77 23.835 17.82 23.845C18.62 23.985 19.32 24.525 19.7 25.285L21.85 29.555C22.28 30.415 23.06 31.035 23.98 31.255L25.19 31.545C25.37 31.585 25.55 31.555 25.7 31.455C25.85 31.355 25.95 31.195 25.98 31.025L29.41 10.445C29.92 7.855 28.51 5.345 26.05 4.455L25.85 4.385C25.01 4.085 24.1 4.095 23.28 4.425L22.24 4.845C19.2 6.065 15.84 6.085 12.78 4.925L11.42 4.405C11.01 4.255 10.57 4.165 10.13 4.165L10.14 4.185Z" fill="#797979"/>
<path d="M21.47 14.475C20.21 14.475 19.07 13.725 18.58 12.555C18.42 12.175 18.6 11.735 18.98 11.575C19.36 11.415 19.8 11.595 19.96 11.975C20.22 12.585 20.81 12.975 21.47 12.975C22.13 12.975 22.72 12.585 22.98 11.975C23.14 11.595 23.58 11.415 23.96 11.575C24.34 11.735 24.52 12.175 24.36 12.555C23.87 13.715 22.73 14.475 21.47 14.475Z" fill="#797979"/>
<path d="M12.75 14.475C11.49 14.475 10.35 13.725 9.86004 12.555C9.70004 12.175 9.88004 11.735 10.26 11.575C10.64 11.415 11.08 11.595 11.24 11.975C11.5 12.585 12.09 12.975 12.75 12.975C13.41 12.975 14 12.585 14.26 11.975C14.42 11.595 14.86 11.415 15.24 11.575C15.62 11.735 15.8 12.175 15.64 12.555C15.15 13.715 14.01 14.475 12.75 14.475Z" fill="#797979"/>
<path d="M17.32 22.335C15.19 22.335 13.46 20.605 13.46 18.475C13.46 18.065 13.8 17.725 14.21 17.725C14.62 17.725 14.96 18.065 14.96 18.475C14.96 19.775 16.02 20.835 17.32 20.835C18.62 20.835 19.68 19.775 19.68 18.475C19.68 18.065 20.02 17.725 20.43 17.725C20.84 17.725 21.18 18.065 21.18 18.475C21.18 20.605 19.45 22.335 17.32 22.335Z" fill="#797979"/>
</svg>
