<svg width="34" height="35" viewBox="0 0 34 35" fill="none" xmlns="http://www.w3.org/2000/svg">
<path d="M26.4602 3.3625L26.2602 3.2925C25.1602 2.8925 23.9502 2.9125 22.8502 3.3525L21.8102 3.7625C19.0402 4.8625 15.9802 4.8925 13.2002 3.8325L11.8502 3.3225C10.7402 2.8925 9.52018 2.8925 8.42018 3.3225C5.50018 4.4325 3.81018 7.4725 4.39018 10.5425L4.59018 11.7425C4.38018 11.7725 4.16018 11.7925 3.93018 11.7925C3.66018 11.7925 3.43018 12.0125 3.43018 12.2925C3.43018 12.5725 3.66018 12.7925 3.93018 12.7925C4.22018 12.7925 4.51018 12.8225 4.78018 12.8725L7.83018 31.2425C7.92018 31.7425 8.21018 32.2025 8.63018 32.4825C8.93018 32.6825 9.29017 32.7925 9.65018 32.7925V32.8125C9.79017 32.8125 9.93018 32.7925 10.0702 32.7625L11.1702 32.5025C12.5002 32.1825 13.6302 31.2425 14.1902 29.9925L16.0102 25.9425C16.2802 25.3325 16.9002 24.9725 17.5202 25.0425H17.6202C18.0502 25.1325 18.4302 25.4325 18.6502 25.8525L20.7902 30.1225C21.3802 31.3025 22.4402 32.1425 23.7102 32.4525L24.9202 32.7425C25.4102 32.8525 25.9302 32.7625 26.3602 32.4825C26.7902 32.2025 27.0802 31.7525 27.1602 31.2525L30.5902 10.6925C31.2102 7.5325 29.4702 4.4525 26.4602 3.3625ZM28.7902 6.7325C27.5202 6.6525 26.4802 5.7425 26.1902 4.5325C27.3202 4.9725 28.2102 5.7625 28.7902 6.7325ZM27.0802 7.2425C26.4702 7.5925 25.9502 8.1125 25.6102 8.7225C25.2602 8.1125 24.7502 7.6025 24.1402 7.2625C24.7502 6.9125 25.2702 6.3925 25.6102 5.7725C25.9602 6.3925 26.4702 6.9025 27.0802 7.2425ZM29.4102 10.4625L25.9802 31.0425C25.9502 31.2125 25.8502 31.3725 25.7002 31.4725C25.5502 31.5725 25.3602 31.6025 25.1902 31.5625L23.9802 31.2725C23.0502 31.0525 22.2702 30.4325 21.8402 29.5725L19.7002 25.3025C19.3202 24.5425 18.6202 24.0125 17.8202 23.8625C17.7602 23.8625 17.7102 23.8625 17.6602 23.8425C16.5102 23.7025 15.4202 24.3425 14.9302 25.4225L13.1102 29.4825C12.7002 30.3925 11.8702 31.0825 10.9002 31.3125L9.80018 31.5725C9.62018 31.6225 9.44018 31.5825 9.29018 31.4825C9.14018 31.3825 9.04018 31.2325 9.01018 31.0525L6.06018 13.3225C7.46018 14.0825 8.41018 15.5725 8.42018 17.2725C8.42018 17.5425 8.65018 17.7625 8.92018 17.7625C9.19018 17.7625 9.42018 17.5425 9.42018 17.2625C9.42018 14.7925 11.4302 12.7725 13.9102 12.7725C14.1802 12.7725 14.4102 12.5525 14.4102 12.2725C14.4102 11.9925 14.1802 11.7725 13.9102 11.7725C11.4402 11.7725 9.43018 9.7625 9.42018 7.2925C9.42018 7.0225 9.20018 6.7925 8.92018 6.7925C8.64018 6.7925 8.42018 7.0225 8.42018 7.2925C8.42018 9.1325 7.32018 10.7125 5.74018 11.4025L5.56018 10.3325C5.08018 7.8225 6.46018 5.3425 8.84018 4.4325C9.26018 4.2725 9.69018 4.1925 10.1302 4.1925C10.5702 4.1825 11.0002 4.2625 11.4202 4.4225L12.7802 4.9425C15.8402 6.1025 19.2002 6.0725 22.2402 4.8625L23.2802 4.4425C23.8602 4.2125 24.4802 4.1325 25.0902 4.2225C24.9202 5.6425 23.7002 6.7625 22.2402 6.7625C21.9602 6.7625 21.7402 6.9825 21.7402 7.2625C21.7402 7.5425 21.9602 7.7625 22.2402 7.7625C23.8202 7.7625 25.1102 9.0425 25.1102 10.6225C25.1102 10.9025 25.3402 11.1225 25.6102 11.1225C25.8802 11.1225 26.1102 10.9025 26.1102 10.6225C26.1102 9.0325 27.4002 7.7425 28.9802 7.7425C29.0702 7.7425 29.1502 7.7225 29.2202 7.6825C29.5202 8.5525 29.6002 9.5025 29.4102 10.4625ZM6.22018 12.2925C7.41018 11.7425 8.38018 10.7725 8.93018 9.5725C9.47018 10.7625 10.4402 11.7225 11.6202 12.2725C10.4302 12.8225 9.46018 13.7925 8.92018 14.9825C8.37018 13.8025 7.41018 12.8425 6.22018 12.2925Z" fill="#797979"/>
</svg>
