<svg width="34" height="35" fill="none" xmlns="http://www.w3.org/2000/svg"><path d="M31.343 27.282l-3.72-5.84a7.524 7.524 0 001.61-10.35l.07-.4a6.413 6.413 0 00-4.12-7.33l-.2-.07c-1.11-.4-2.32-.38-3.41.06l-1.05.41c-2.76 1.1-5.82 1.13-8.6.07l-1.36-.51c-1.1-.43-2.32-.43-3.42 0a6.433 6.433 0 00-4.03 7.22l3.44 20.7c.08.5.37.96.79 1.24.31.2.66.31 1.02.31v.02c.15 0 .29-.02.43-.05l1.1-.26a4.484 4.484 0 003.02-2.51l1.82-4.05c.27-.61.89-.97 1.51-.9h.09c.44.09.82.39 1.03.81l2.15 4.27a4.42 4.42 0 002.92 2.33l1.21.29c.49.11 1.01.02 1.44-.26.42-.28.71-.73.8-1.23l1.29-7.74 2.91 4.57c.14.23.38.35.63.35.14 0 .28-.04.4-.12.35-.22.45-.68.23-1.03zm-5.14-6.67c-.92.57-2 .89-3.16.89-3.35 0-6.08-2.72-6.08-6.07a6.09 6.09 0 016.08-6.08c3.35 0 6.07 2.73 6.07 6.08a6.07 6.07 0 01-2.91 5.18zm-1.5 10.43c-.03.17-.13.33-.29.43-.15.1-.33.13-.51.09l-1.21-.29c-.92-.22-1.7-.84-2.13-1.7l-2.15-4.27a2.666 2.666 0 00-1.88-1.44c-.05 0-.1 0-.16-.02-1.14-.14-2.24.5-2.72 1.58l-1.82 4.06a3.28 3.28 0 01-2.21 1.83l-1.11.26a.62.62 0 01-.51-.09.636.636 0 01-.28-.43l-3.44-20.72a5.25 5.25 0 013.28-5.9c.41-.16.85-.24 1.29-.24.43-.01.87.07 1.29.23l1.35.52c3.06 1.16 6.43 1.13 9.47-.08l1.04-.42c.82-.33 1.74-.34 2.57-.04l.2.07c2.29.83 3.66 3.05 3.44 5.44a7.506 7.506 0 00-5.17-2.06c-4.18 0-7.58 3.4-7.58 7.58s3.4 7.57 7.58 7.57a7.4 7.4 0 003.11-.68l-1.45 8.72z" fill="#797979"/><path d="M18.883 14.363s-.09 0-.14-.01a.744.744 0 01-.59-.88c.23-1.18.96-2.19 2.02-2.76 1.02-.56 2.22-.64 3.31-.24.39.14.59.58.44.96a.74.74 0 01-.96.44c-.68-.25-1.44-.2-2.08.15-.66.36-1.12.99-1.26 1.73a.75.75 0 01-.74.61z" fill="#797979"/></svg>