<svg width="34" height="35" fill="none" xmlns="http://www.w3.org/2000/svg"><path d="M9.65 34.982c-.363 0-.718-.107-1.02-.31a1.853 1.853 0 01-.795-1.233L4.396 12.737a6.444 6.444 0 014.026-7.226 4.785 4.785 0 013.427 0l1.357.518a11.843 11.843 0 008.602-.071l1.044-.417a4.786 4.786 0 013.415-.054l.195.071c3.012 1.09 4.75 4.17 4.127 7.328l-3.427 20.56a1.84 1.84 0 01-2.241 1.489l-1.21-.292a4.402 4.402 0 01-2.916-2.324l-2.146-4.271c-.214-.423-.6-.727-1.032-.799l-.095-.011c-.616-.072-1.239.291-1.506.893l-1.82 4.057a4.463 4.463 0 01-3.023 2.502l-1.103.262c-.136.03-.279.048-.42.048v-.018zm.485-28.596c-.438 0-.877.078-1.292.239a5.254 5.254 0 00-3.279 5.904L9.01 33.243c.03.178.13.333.278.434a.62.62 0 00.51.09l1.103-.262a3.277 3.277 0 002.211-1.83l1.82-4.056c.487-1.084 1.583-1.722 2.728-1.585.053.006.106.012.16.024.8.143 1.5.68 1.879 1.436l2.146 4.271a3.217 3.217 0 002.134 1.698l1.21.292a.64.64 0 00.51-.09.642.642 0 00.284-.434l3.433-20.577c.51-2.592-.901-5.1-3.362-5.988l-.195-.071a3.613 3.613 0 00-2.573.042l-1.044.417a13 13 0 01-9.462.077l-1.357-.518a3.698 3.698 0 00-1.287-.238v.011zm-7.464 1.4h-.053a.59.59 0 01-.534-.649c.137-1.507 1.05-2.925 2.443-3.795 1.518-.947 3.178-1.054 4.31-.965.326.024.57.31.545.638a.588.588 0 01-.634.548c-1.346-.102-2.626.184-3.599.792-1.067.667-1.79 1.775-1.89 2.895a.593.593 0 01-.588.542v-.006z" fill="#797979"/><path d="M.59 6.72H.537a.59.59 0 01-.534-.65c.172-1.906 1.334-3.699 3.101-4.807C5.037.053 7.165-.077 8.612.03c.326.024.569.31.545.637a.588.588 0 01-.634.548c-1.797-.13-3.498.245-4.796 1.055-1.435.9-2.407 2.395-2.55 3.908a.593.593 0 01-.587.542zm30.746 1.066a.599.599 0 01-.593-.542c-.101-1.12-.824-2.228-1.891-2.895-.973-.608-2.247-.888-3.599-.792a.592.592 0 01-.634-.548.593.593 0 01.545-.638c1.132-.083 2.792.018 4.31.965 1.393.87 2.306 2.294 2.443 3.795a.595.595 0 01-.534.65h-.053l.006.005z" fill="#797979"/><path d="M33.41 6.72a.599.599 0 01-.592-.542c-.137-1.513-1.115-3.009-2.55-3.908-1.298-.81-3.005-1.186-4.79-1.055a.581.581 0 01-.634-.548.593.593 0 01.545-.637c2.046-.149 3.996.286 5.508 1.233 1.767 1.108 2.929 2.907 3.1 4.808a.595.595 0 01-.533.65h-.053z" fill="#797979"/></svg>