<svg width="160" height="37" fill="none" xmlns="http://www.w3.org/2000/svg"><path d="M37.56 21.669a7.413 7.413 0 007.408-7.681c-.143-4.016-3.564-7.14-7.584-7.14h-8.023V8.73h7.844c.236 0 .477.004.713.036a5.547 5.547 0 014.785 5.49 5.551 5.551 0 01-4.785 5.494 5.22 5.22 0 01-.713.037h-7.156l-.692 1.882h8.202z" fill="#1D1D1B"/><path d="M31.743 6.844h-2.386v14.825h2.386V6.844zm28.486 9.693s.745-6.138-6.464-6.138c-4.965 0-6.68 2.896-6.68 5.596s1.32 5.812 6.7 5.812c6.44 0 6.44-3.824 6.44-3.824h-2.102s-.187 2.228-4.338 2.228c-4.15 0-4.602-2.175-4.602-4.387 0-2.052 1.084-3.869 4.602-3.869 3.695 0 4.664 2.016 4.236 4.582h2.209z" fill="#1D1D1B"/><path d="M59.182 15.173H48.148v1.36h11.034v-1.36zm5.486-4.591h-2.26V21.64h2.26V10.582zm52.551 11.058h-2.26L109.75 6.844h2.264l5.205 14.796z" fill="#1D1D1B"/><path d="M115.794 21.64h2.26l4.081-14.796h-2.26l-4.081 14.796zm9.689 0h2.26l5.205-14.796h-2.26l-5.205 14.796z" fill="#1D1D1B"/><path d="M126.908 21.64h-2.264l-4.081-14.796h2.264l4.081 14.796zm27.471 0h-2.089l-6.154-11.058h2.468l5.775 11.058z" fill="#1D1D1B"/><path d="M149.623 26.939h2.089L160 10.582h-2.15l-8.227 16.357zM104.781 5.26h-2.26v16.38h2.26V5.26zm-29.996 9.685v6.7h-2.26v-6.322c0-2.341-1.797-3.238-3.992-3.132-2.273.11-3.861 1.381-3.861 3.34h-.705v-3.197h1.247c.822-1.01 2.358-1.87 4.43-1.926 2.306-.062 5.145.985 5.145 4.537m11.461-4.338H75.962v1.723H86.25v-1.723z" fill="#1D1D1B"/><path d="M83.993 16.948v1.28c0 .875-.676 1.6-1.551 1.66a5.14 5.14 0 01-.71 0 1.668 1.668 0 01-1.55-1.66V7.303h-2.257v10.72a3.75 3.75 0 003.617 3.746c.362.013.724.013 1.083 0a3.746 3.746 0 003.617-3.746v-1.072h-2.257l.008-.004zm16.393-2.631v7.315h-2.207v-7.315c0-1.29-1.088-2.386-3.861-2.386-2.774 0-3.788 1.254-3.788 2.325h-2.195c0-1.16.705-3.828 6.089-3.828s5.962 2.623 5.962 3.893" fill="#1D1D1B"/><path d="M98.77 15.246h-6.497c-1.828 0-4.28.733-4.28 3.25s2.15 3.29 4.627 3.29c2.476 0 4.288-.671 5.563-2.5V17.16s.118 3.075-4.66 3.075c-1.828 0-3.314-.432-3.314-1.98 0-1.547 1.893-1.698 2.863-1.698h5.445l.257-1.311h-.005zm46.344-.929v7.315h-2.208v-7.315c0-1.29-1.087-2.386-3.861-2.386-2.773 0-3.787 1.254-3.787 2.325h-2.196c0-1.16.705-3.828 6.089-3.828 5.385 0 5.963 2.623 5.963 3.893" fill="#1D1D1B"/><path d="M143.497 15.246h-6.496c-1.829 0-4.281.733-4.281 3.25s2.151 3.29 4.627 3.29 4.289-.671 5.564-2.5V17.16s.118 3.075-4.66 3.075c-1.828 0-3.315-.432-3.315-1.98 0-1.547 1.894-1.698 2.863-1.698h5.446l.256-1.311h-.004z" fill="#1D1D1B"/><path d="M11.277 11.096c3.071 0 5.568-2.513 5.576-5.609h-2.737c0 1.58-1.275 2.872-2.834 2.872-1.564 0-2.835-1.295-2.835-2.88H5.71c0 3.096 2.493 5.617 5.567 5.617z" fill="#B89A81"/><path d="M7.062 14.158c.95-2.924-.668-6.076-3.608-7.037l-.851 2.606c1.506.493 2.341 2.098 1.857 3.584-.485 1.483-2.106 2.293-3.617 1.805L0 17.718c2.945.961 6.113-.635 7.062-3.56z" fill="#B89A81"/><path d="M8.675 19.107c-2.484-1.804-5.983-1.242-7.808 1.262l2.216 1.613c.933-1.283 2.72-1.576 3.983-.66 1.263.92 1.532 2.713.599 3.996l2.211 1.609c1.821-2.501 1.283-6.012-1.201-7.82h-.004.004z" fill="#B89A81"/><path d="M13.88 19.107c-2.484 1.804-3.026 5.307-1.21 7.812l2.216-1.61c-.929-1.282-.656-3.074.607-3.99 1.266-.917 3.054-.62 3.987.667l2.212-1.608c-1.817-2.505-5.32-3.08-7.808-1.275h-.004" fill="#B89A81"/><path d="M15.493 14.155c.949 2.92 4.11 4.52 7.058 3.567l-.843-2.606c-1.507.488-3.128-.322-3.608-1.809-.481-1.49.354-3.099 1.865-3.588l-.847-2.602c-2.945.953-4.57 4.105-3.625 7.03v.008z" fill="#B89A81"/><path d="M33.218 26.747l-1.776 3.294c-.14.262-.306.458-.497.588-.19.13-.397.194-.622.194-.175 0-.354-.04-.536-.12l.148-.457c.14.05.266.074.377.074.251 0 .458-.133.622-.4l.091-.142-1.61-3.031h.611l1.296 2.535 1.33-2.535h.566zm4.439 3.996l-.005-2.912-1.445 2.427h-.262l-1.444-2.41v2.895h-.548v-3.996h.468l1.666 2.808 1.645-2.808h.468l.005 3.996h-.548zm5.372-3.996v3.996h-.571v-1.781h-2.295v1.78h-.571v-3.995h.57v1.718h2.296v-1.718h.57zm3.986 2.997H44.89l-.44.999h-.587l1.81-3.996h.565l1.815 3.996h-.6l-.44-1zm-.2-.457l-.862-1.958-.862 1.958h1.724zm4.81-2.54v3.996h-.56v-1.165h-1.101a1.86 1.86 0 01-.154-.005l-.8 1.17h-.604l.884-1.267a1.248 1.248 0 01-.656-.474 1.42 1.42 0 01-.228-.817c0-.452.144-.804.433-1.056.294-.255.687-.382 1.182-.382h1.604zm-2.643 1.433c0 .297.086.525.257.685.175.156.432.234.77.234h1.057v-1.855h-1.022c-.343 0-.605.08-.788.24-.182.16-.274.391-.274.696zm7.495 2.608c-.4 0-.76-.087-1.084-.262a1.984 1.984 0 01-.754-.73 2.04 2.04 0 01-.274-1.051c0-.388.092-.737.274-1.045a1.92 1.92 0 01.76-.73 2.203 2.203 0 011.084-.269c.312 0 .598.053.857.16.258.103.48.257.662.462l-.371.36a1.489 1.489 0 00-1.125-.474c-.297 0-.565.067-.805.2a1.46 1.46 0 00-.565.554c-.133.232-.2.493-.2.782 0 .29.067.552.2.788.137.232.325.415.565.548.24.133.508.2.805.2.445 0 .82-.16 1.125-.48l.37.36a1.771 1.771 0 01-.667.468 2.23 2.23 0 01-.857.16zm5.155-3.544h-1.37v3.499h-.56v-3.5h-1.364v-.496h3.294v.497zm2.579 3.544c-.403 0-.767-.087-1.09-.262a2.003 2.003 0 01-.765-.736 2.029 2.029 0 01-.274-1.045 1.954 1.954 0 011.039-1.775 2.215 2.215 0 011.09-.269c.4 0 .761.09 1.085.268.323.175.576.42.76.731.182.308.273.657.273 1.045 0 .388-.091.738-.274 1.05a1.974 1.974 0 01-.76.73 2.241 2.241 0 01-1.084.264zm0-.508c.293 0 .556-.066.788-.2.236-.132.42-.315.554-.547a1.54 1.54 0 00.205-.788c0-.29-.068-.55-.205-.782a1.434 1.434 0 00-.554-.554 1.555 1.555 0 00-.788-.2c-.293 0-.56.067-.799.2a1.474 1.474 0 00-.56.554c-.133.232-.2.493-.2.782 0 .29.067.552.2.788.138.232.324.415.56.548.24.133.506.2.8.2zm6.889.463l-.006-2.912-1.444 2.427h-.263l-1.444-2.41v2.895h-.548v-3.996h.468l1.667 2.808 1.644-2.808h.468l.005 3.996H71.1zm4.532-.999h-2.124l-.44.999h-.588l1.81-3.996h.565l1.816 3.996h-.6l-.44-1zm-.2-.457l-.862-1.958-.862 1.958h1.724zm4.616-2.043h-1.37v3.499h-.56v-3.5h-1.364v-.496h3.294v.497zm2.579 3.544c-.403 0-.767-.087-1.09-.262a2.003 2.003 0 01-.765-.736 2.029 2.029 0 01-.274-1.045 1.954 1.954 0 011.039-1.775 2.215 2.215 0 011.09-.269c.4 0 .761.09 1.085.268.323.175.576.42.759.731.182.308.274.657.274 1.045 0 .388-.092.738-.274 1.05a1.974 1.974 0 01-.76.73 2.241 2.241 0 01-1.084.264zm0-.508c.293 0 .556-.066.788-.2.236-.132.42-.315.553-.547a1.54 1.54 0 00.206-.788c0-.29-.069-.55-.206-.782a1.434 1.434 0 00-.553-.554 1.555 1.555 0 00-.788-.2c-.293 0-.56.067-.8.2a1.474 1.474 0 00-.559.554c-.133.232-.2.493-.2.782 0 .29.067.552.2.788.137.232.324.415.56.548.24.133.506.2.799.2zm6.337-3.533v3.996h-.56v-3.5h-1.769l-.04 1.17a8.08 8.08 0 01-.137 1.342c-.068.343-.179.602-.33.777-.153.17-.359.256-.618.256-.117 0-.237-.015-.36-.045l.04-.508a.78.78 0 00.184.023.471.471 0 00.393-.194c.1-.134.174-.332.223-.594.05-.263.082-.61.097-1.04l.063-1.683h2.814zm3.186 4.041a2.25 2.25 0 01-1.09-.262 2.002 2.002 0 01-.765-.736 2.029 2.029 0 01-.274-1.045c0-.385.09-.733.274-1.045a1.96 1.96 0 01.764-.73 2.215 2.215 0 011.09-.269c.4 0 .762.09 1.085.268.324.175.577.42.76.731.182.308.274.657.274 1.045 0 .388-.092.738-.274 1.05a1.973 1.973 0 01-.76.73 2.241 2.241 0 01-1.084.264zm0-.508c.293 0 .555-.066.788-.2.236-.132.42-.315.553-.547a1.54 1.54 0 00.206-.788c0-.29-.069-.55-.206-.782a1.434 1.434 0 00-.553-.554 1.555 1.555 0 00-.788-.2c-.293 0-.56.067-.8.2a1.474 1.474 0 00-.559.554c-.133.232-.2.493-.2.782 0 .29.067.552.2.788.137.232.324.415.56.548.24.133.506.2.799.2zm5.798-3.036h-2.055l.005 3.499h-.565v-3.996h2.62l-.005.497zm.828-.497h.566v3.082l2.363-3.082h.525v3.996h-.559v-3.077l-2.37 3.077h-.525v-3.996zm7.771 0v3.996h-.559v-1.165h-1.102a1.86 1.86 0 01-.154-.005l-.799 1.17h-.606l.885-1.267a1.247 1.247 0 01-.656-.474 1.422 1.422 0 01-.229-.817c0-.452.145-.804.434-1.056.293-.255.687-.382 1.182-.382h1.604zm-2.643 1.433c0 .297.086.525.257.685.175.156.432.234.771.234h1.056v-1.855h-1.022c-.343 0-.605.08-.788.24-.183.16-.274.391-.274.696z" fill="#1D1D1B"/></svg>