<svg width="248" height="59" fill="none" xmlns="http://www.w3.org/2000/svg"><path d="M58.217 34.337c6.483 0 11.717-5.372 11.483-11.906-.22-6.224-5.524-11.066-11.755-11.066H45.51v2.916h12.159c.366 0 .738.007 1.105.057 4.191.58 7.417 4.167 7.417 8.51s-3.226 7.935-7.417 8.516c-.367.05-.74.057-1.105.057H46.576l-1.073 2.916h12.714z" fill="#1D1D1B"/><path d="M49.202 11.358h-3.7v22.98h3.7v-22.98zm44.153 15.025s1.155-9.513-10.019-9.513c-7.695 0-10.353 4.488-10.353 8.674 0 4.185 2.045 9.008 10.385 9.008 9.98 0 9.98-5.928 9.98-5.928h-3.257s-.29 3.453-6.723 3.453-7.134-3.37-7.134-6.799c0-3.181 1.68-5.997 7.134-5.997 5.725 0 7.228 3.125 6.565 7.102h3.422z" fill="#1D1D1B"/><path d="M91.732 24.268H74.63v2.109h17.102v-2.109zm8.504-7.114h-3.504v17.139h3.504v-17.14zm81.454 17.139h-3.504l-8.074-22.935h3.51l8.068 22.935z" fill="#1D1D1B"/><path d="M179.48 34.293h3.504l6.325-22.935h-3.503l-6.326 22.935zm15.019 0h3.503l8.068-22.935h-3.504l-8.067 22.935z" fill="#1D1D1B"/><path d="M196.708 34.293h-3.51l-6.325-22.935h3.509l6.326 22.935zm42.58 0h-3.239l-9.538-17.14h3.825l8.952 17.14z" fill="#1D1D1B"/><path d="M231.915 42.506h3.238L248 17.154h-3.333l-12.752 25.352zM162.41 8.903h-3.503v25.39h3.503V8.903zm-46.494 15.012v10.384h-3.504v-9.797c0-3.63-2.784-5.019-6.186-4.855-3.523.17-5.985 2.14-5.985 5.177h-1.092v-4.956h1.932c1.275-1.565 3.655-2.897 6.868-2.986 3.573-.094 7.973 1.528 7.973 7.033m17.765-6.724h-15.946v2.67h15.946v-2.67z" fill="#1D1D1B"/><path d="M130.19 27.02v1.983a2.58 2.58 0 01-2.405 2.575 7.998 7.998 0 01-1.099 0 2.585 2.585 0 01-2.405-2.575V12.072h-3.497v16.615a5.814 5.814 0 005.605 5.808c.562.019 1.124.019 1.68 0a5.806 5.806 0 005.606-5.808v-1.66h-3.498l.013-.006zm25.409-4.077V34.28h-3.422V22.943c0-2.002-1.685-3.7-5.984-3.7-4.3 0-5.871 1.945-5.871 3.605h-3.403c0-1.8 1.092-5.934 9.438-5.934 8.345 0 9.242 4.065 9.242 6.035" fill="#1D1D1B"/><path d="M153.093 24.382h-10.069c-2.835 0-6.635 1.136-6.635 5.037 0 3.902 3.333 5.101 7.171 5.101 3.839 0 6.648-1.041 8.624-3.876V27.35s.183 4.766-7.222 4.766c-2.835 0-5.139-.67-5.139-3.068 0-2.399 2.936-2.632 4.438-2.632h8.44l.398-2.033h-.006zm71.834-1.439V34.28h-3.422V22.943c0-2.002-1.686-3.7-5.985-3.7s-5.871 1.945-5.871 3.605h-3.402c0-1.8 1.092-5.934 9.438-5.934 8.345 0 9.242 4.065 9.242 6.035" fill="#1D1D1B"/><path d="M222.42 24.382h-10.069c-2.834 0-6.634 1.136-6.634 5.037 0 3.902 3.333 5.101 7.171 5.101s6.647-1.041 8.623-3.876V27.35s.183 4.766-7.222 4.766c-2.834 0-5.138-.67-5.138-3.068 0-2.399 2.935-2.632 4.438-2.632h8.44l.398-2.033h-.007z" fill="#1D1D1B"/><path d="M17.48 17.95c4.76 0 8.63-3.896 8.642-8.694H21.88c0 2.45-1.976 4.45-4.394 4.45-2.424 0-4.393-2.007-4.393-4.462H8.85c0 4.797 3.864 8.705 8.63 8.705z" fill="#B89A81"/><path d="M10.947 22.696c1.47-4.532-1.036-9.419-5.594-10.908l-1.32 4.04c2.337.764 3.63 3.25 2.88 5.555-.752 2.298-3.264 3.554-5.606 2.797L0 28.214c4.564 1.49 9.476-.985 10.947-5.518z" fill="#B89A81"/><path d="M13.446 30.366c-3.85-2.796-9.273-1.925-12.101 1.957l3.434 2.5c1.446-1.988 4.217-2.443 6.174-1.022 1.957 1.426 2.373 4.204.928 6.192l3.428 2.494c2.822-3.876 1.988-9.318-1.863-12.12h-.006.006z" fill="#B89A81"/><path d="M21.514 30.366c-3.85 2.797-4.69 8.226-1.875 12.108l3.434-2.493c-1.439-1.989-1.016-4.766.941-6.187 1.963-1.42 4.735-.96 6.18 1.036l3.428-2.494c-2.815-3.882-8.244-4.772-12.102-1.976h-.006" fill="#B89A81"/><path d="M24.014 22.69c1.47 4.526 6.37 7.007 10.94 5.53l-1.307-4.04c-2.335.758-4.848-.499-5.593-2.803-.745-2.31.55-4.804 2.892-5.562l-1.314-4.034c-4.564 1.478-7.083 6.364-5.618 10.896v.013z" fill="#B89A81"/><path d="M51.487 42.209l-2.752 5.105c-.218.407-.475.71-.77.911-.295.2-.616.301-.964.301-.271 0-.549-.062-.832-.186l.23-.708c.218.077.413.116.584.116.39 0 .711-.207.965-.62l.141-.221-2.495-4.698h.947l2.008 3.928 2.062-3.928h.876zm6.882 6.193l-.009-4.512-2.239 3.76h-.407l-2.238-3.734v4.486h-.85v-6.194h.726l2.584 4.354 2.548-4.353h.725l.01 6.193h-.85zm8.325-6.193v6.193h-.885v-2.76h-3.557v2.76h-.885v-6.194h.885v2.664h3.557v-2.663h.885zm6.179 4.645h-3.291l-.682 1.548h-.911l2.805-6.194h.876l2.813 6.194h-.929l-.681-1.548zm-.31-.708l-1.336-3.035-1.336 3.035h2.672zm7.456-3.937v6.193h-.867v-1.805h-1.708c-.106 0-.186-.003-.239-.009l-1.239 1.814h-.937l1.371-1.964c-.442-.148-.782-.392-1.018-.734-.235-.349-.353-.77-.353-1.266 0-.702.224-1.247.672-1.637.454-.395 1.065-.593 1.832-.593h2.486zm-4.097 2.22c0 .46.133.814.398 1.062.272.242.67.363 1.195.363h1.637v-2.876h-1.584c-.53 0-.938.124-1.221.372-.283.248-.425.608-.425 1.08zm11.618 4.044c-.62 0-1.18-.136-1.681-.407a3.078 3.078 0 01-1.168-1.133 3.162 3.162 0 01-.425-1.628c0-.601.142-1.141.425-1.619a2.977 2.977 0 011.177-1.132 3.415 3.415 0 011.681-.416c.484 0 .926.082 1.327.247.401.16.743.399 1.027.717l-.576.558c-.465-.49-1.047-.735-1.743-.735-.46 0-.876.103-1.247.31a2.267 2.267 0 00-.876.858c-.207.36-.31.764-.31 1.212 0 .449.103.856.31 1.221.212.36.504.643.876.85.371.206.787.31 1.247.31a2.31 2.31 0 001.743-.744l.576.558c-.284.318-.629.56-1.036.725a3.454 3.454 0 01-1.327.248zm7.99-5.495h-2.124v5.424h-.867v-5.424h-2.115v-.77h5.106v.77zm3.997 5.495a3.494 3.494 0 01-1.69-.407 3.106 3.106 0 01-1.185-1.141 3.145 3.145 0 01-.425-1.62c0-.595.141-1.135.425-1.619a3.04 3.04 0 011.185-1.132 3.433 3.433 0 011.69-.416c.62 0 1.18.138 1.681.416.502.27.894.648 1.177 1.132a3.12 3.12 0 01.425 1.62c0 .601-.142 1.144-.425 1.628a3.057 3.057 0 01-1.177 1.132 3.471 3.471 0 01-1.68.407zm0-.787c.454 0 .861-.104 1.221-.31.366-.207.652-.49.859-.85a2.39 2.39 0 00.318-1.22c0-.449-.106-.853-.318-1.213a2.225 2.225 0 00-.859-.858 2.408 2.408 0 00-1.22-.31c-.455 0-.868.103-1.24.31a2.285 2.285 0 00-.867.858c-.206.36-.31.764-.31 1.212 0 .449.104.856.31 1.221.213.36.502.643.867.85.372.206.785.31 1.24.31zm10.677.716l-.009-4.512-2.238 3.76h-.407l-2.239-3.734v4.486h-.849v-6.194h.725l2.584 4.354 2.548-4.353h.726l.009 6.193h-.85zm7.025-1.548h-3.292l-.681 1.548h-.912l2.805-6.194h.876l2.814 6.194h-.929l-.681-1.548zm-.31-.708l-1.336-3.035-1.336 3.035h2.672zm7.155-3.168h-2.123v5.424h-.867v-5.424h-2.115v-.77h5.105v.77zm3.998 5.495a3.49 3.49 0 01-1.69-.407 3.103 3.103 0 01-1.186-1.141 3.147 3.147 0 01-.425-1.62c0-.595.142-1.135.425-1.619a3.037 3.037 0 011.186-1.132 3.43 3.43 0 011.69-.416c.619 0 1.18.138 1.681.416a2.98 2.98 0 011.177 1.132c.283.478.424 1.018.424 1.62 0 .601-.141 1.144-.424 1.628a3.064 3.064 0 01-1.177 1.132 3.474 3.474 0 01-1.681.407zm0-.787a2.41 2.41 0 001.221-.31c.366-.207.652-.49.858-.85.212-.365.319-.772.319-1.22 0-.449-.107-.853-.319-1.213a2.216 2.216 0 00-.858-.858 2.41 2.41 0 00-1.221-.31 2.51 2.51 0 00-1.239.31 2.28 2.28 0 00-.867.858c-.207.36-.31.764-.31 1.212 0 .449.103.856.31 1.221a2.3 2.3 0 00.867.85c.372.206.785.31 1.239.31zm9.823-5.477v6.193h-.868v-5.424h-2.743l-.062 1.814c-.029.855-.1 1.549-.212 2.08-.106.53-.277.932-.513 1.203-.236.265-.555.398-.956.398a2.29 2.29 0 01-.557-.07l.062-.788c.094.023.189.035.283.035a.73.73 0 00.61-.3c.154-.207.269-.514.346-.92.076-.408.126-.945.15-1.611l.097-2.61h4.363zm4.937 6.264a3.496 3.496 0 01-1.69-.407 3.107 3.107 0 01-1.185-1.141 3.137 3.137 0 01-.425-1.62c0-.595.141-1.135.425-1.619a3.04 3.04 0 011.185-1.132 3.435 3.435 0 011.69-.416c.62 0 1.18.138 1.681.416.502.27.894.648 1.177 1.132a3.12 3.12 0 01.425 1.62c0 .601-.142 1.144-.425 1.628a3.057 3.057 0 01-1.177 1.132 3.472 3.472 0 01-1.681.407zm0-.787a2.41 2.41 0 001.221-.31c.366-.207.652-.49.859-.85a2.39 2.39 0 00.318-1.22c0-.449-.106-.853-.318-1.213a2.225 2.225 0 00-.859-.858 2.41 2.41 0 00-1.221-.31 2.51 2.51 0 00-1.239.31 2.294 2.294 0 00-.867.858c-.206.36-.309.764-.309 1.212 0 .449.103.856.309 1.221.213.36.502.643.867.85.372.206.785.31 1.239.31zm8.987-4.708h-3.185l.009 5.424h-.876v-6.194h4.061l-.009.77zm1.284-.769h.876v4.778l3.663-4.779h.814v6.194h-.867v-4.769l-3.672 4.77h-.814v-6.194zm12.045 0v6.193h-.867v-1.805h-1.708c-.106 0-.186-.003-.239-.009l-1.239 1.814h-.938l1.372-1.964c-.442-.148-.782-.392-1.018-.734-.236-.349-.354-.77-.354-1.266 0-.702.225-1.247.673-1.637.454-.395 1.065-.593 1.832-.593h2.486zm-4.097 2.22c0 .46.133.814.398 1.062.272.242.67.363 1.195.363h1.637v-2.876h-1.584c-.531 0-.938.124-1.221.372-.283.248-.425.608-.425 1.08z" fill="#1D1D1B"/></svg>