<svg width="34" height="35" viewBox="0 0 34 35" fill="none" xmlns="http://www.w3.org/2000/svg">
<path d="M9.64913 34.9821C9.2875 34.9821 8.93179 34.8749 8.62943 34.6723C8.20851 34.3923 7.91801 33.9396 7.83501 33.4392L4.39648 12.7371C3.81549 9.66903 5.50511 6.62478 8.42193 5.51074C9.52464 5.08776 10.74 5.08776 11.8486 5.51074L13.2062 6.02904C15.9867 7.0835 19.0458 7.05967 21.8085 5.95755L22.8519 5.54053C23.9487 5.10564 25.1581 5.08181 26.2667 5.48691L26.4624 5.5584C29.4741 6.64861 31.2111 9.7286 30.5886 12.886L27.1619 33.4451C27.0789 33.9455 26.7884 34.3983 26.3616 34.6783C25.9347 34.9583 25.413 35.0477 24.921 34.9345L23.7115 34.6426C22.4428 34.3387 21.3816 33.4928 20.7947 32.3192L18.6486 28.0477C18.4352 27.6247 18.0498 27.3209 17.617 27.2494L17.5222 27.2375C16.9056 27.166 16.2831 27.5294 16.0163 28.1311L14.1963 32.1881C13.6331 33.4392 12.5067 34.3745 11.1728 34.6902L10.0701 34.9523C9.9337 34.9821 9.79142 35 9.64913 35V34.9821ZM10.1353 6.38648C9.69656 6.38648 9.25785 6.46393 8.84286 6.62478C6.46553 7.53627 5.08419 10.0146 5.56439 12.5286L9.00886 33.2426C9.0385 33.4213 9.13928 33.5762 9.28749 33.6775C9.44164 33.7787 9.61949 33.8145 9.79735 33.7668L10.9 33.5047C11.8723 33.2723 12.7023 32.5872 13.1114 31.6758L14.9314 27.6187C15.4176 26.5345 16.5143 25.8971 17.6585 26.0341C17.7119 26.04 17.7653 26.046 17.8186 26.0579C18.619 26.2009 19.3185 26.7371 19.6979 27.4936L21.8441 31.7651C22.2709 32.623 23.0535 33.2426 23.9783 33.463L25.1877 33.7549C25.3656 33.7966 25.5494 33.7668 25.6976 33.6655C25.8517 33.5643 25.9525 33.4094 25.9822 33.2306L29.4148 12.6537C29.9246 10.0622 28.5136 7.55414 26.0533 6.66648L25.8577 6.59499C25.0217 6.29116 24.1088 6.30904 23.2847 6.6367L22.2413 7.05372C19.2 8.26903 15.8385 8.29286 12.7794 7.13116L11.4218 6.61286C11.0068 6.45797 10.5681 6.37457 10.1353 6.37457V6.38648Z" fill="#797979"/>
<path d="M2.67129 7.78648C2.67129 7.78648 2.63571 7.78648 2.61793 7.78648C2.29186 7.75669 2.04879 7.46478 2.08436 7.13712C2.22072 5.62989 3.13371 4.21202 4.52691 3.34224C6.0446 2.39501 7.70458 2.28777 8.83693 2.37714C9.163 2.40097 9.40606 2.68692 9.38235 3.01458C9.35864 3.34224 9.07407 3.59245 8.748 3.56266C7.40223 3.46139 6.12167 3.74734 5.1494 4.355C4.08227 5.02223 3.35899 6.13031 3.25821 7.25031C3.22856 7.5601 2.97364 7.79244 2.67129 7.79244V7.78648Z" fill="#797979"/>
<path d="M0.590381 6.7201C0.590381 6.7201 0.55481 6.7201 0.537024 6.7201C0.210956 6.69031 -0.0321126 6.3984 0.0034584 6.07074C0.175385 4.16436 1.33737 2.37118 3.10407 1.2631C5.03676 0.0537388 7.16509 -0.0773244 8.61165 0.0299093C8.93771 0.053739 9.18078 0.339695 9.15707 0.667354C9.13336 0.995012 8.84879 1.24522 8.52272 1.21544C6.72638 1.08437 5.0249 1.45969 3.72656 2.2699C2.29186 3.16947 1.31959 4.66479 1.1773 6.17797C1.14766 6.48776 0.892734 6.7201 0.590381 6.7201Z" fill="#797979"/>
<path d="M31.3356 7.78648C31.0332 7.78648 30.7724 7.55414 30.7428 7.24435C30.642 6.12436 29.9187 5.01628 28.8516 4.34904C27.8793 3.74139 26.6047 3.46139 25.253 3.55671C24.9328 3.58649 24.6423 3.33628 24.6186 3.00862C24.5949 2.68096 24.838 2.39501 25.164 2.37118C26.2964 2.28777 27.9564 2.38905 29.4741 3.33628C30.8673 4.20607 31.7802 5.62989 31.9166 7.13116C31.9462 7.45882 31.7091 7.75073 31.383 7.78052C31.3652 7.78052 31.3475 7.78052 31.3297 7.78052L31.3356 7.78648Z" fill="#797979"/>
<path d="M33.4106 6.7201C33.1082 6.7201 32.8474 6.48776 32.8177 6.17797C32.6814 4.66479 31.7032 3.16947 30.2685 2.2699C28.9701 1.45969 27.2627 1.08437 25.4782 1.21544C25.1403 1.24522 24.8676 0.995012 24.8439 0.667354C24.8202 0.339695 25.0632 0.053739 25.3893 0.0299093C27.4346 -0.119026 29.3851 0.315866 30.8969 1.2631C32.6636 2.37118 33.8256 4.17032 33.9975 6.07074C34.0271 6.3984 33.79 6.69031 33.4639 6.7201C33.4461 6.7201 33.4284 6.7201 33.4106 6.7201Z" fill="#797979"/>
</svg>
