<svg width="34" height="35" viewBox="0 0 34 35" fill="none" xmlns="http://www.w3.org/2000/svg">
<path d="M30.0801 0H22.5001C25.0201 2.09 27.3201 4.19 28.5801 6.81C27.9801 6.27 27.2601 5.84 26.4601 5.55L26.2601 5.48C25.1501 5.08 23.9501 5.1 22.8501 5.54L21.8101 5.95C19.0401 7.05 15.9801 7.08 13.2001 6.02L11.8501 5.51C10.7401 5.08 9.52011 5.08 8.42011 5.51C7.55011 5.84 6.78011 6.34 6.16011 6.97C7.27011 4.27 9.52011 2.11 12.0301 0H4.60011C1.81011 3.66 0.390113 7.79 4.15011 12.78L4.47011 13.2L7.83011 33.43C7.91011 33.93 8.21011 34.39 8.63011 34.67C8.93011 34.87 9.28011 34.98 9.65011 34.98V35C9.79011 35 9.93011 34.98 10.0701 34.95L11.1701 34.69C12.5001 34.37 13.6301 33.43 14.1901 32.18L16.0101 28.13C16.2801 27.52 16.9001 27.16 17.5201 27.23H17.6101C18.0501 27.32 18.4301 27.62 18.6501 28.04L20.7901 32.31C21.3801 33.49 22.4401 34.33 23.7101 34.64L24.9201 34.93C25.4101 35.04 25.9301 34.95 26.3601 34.67C26.7901 34.39 27.0801 33.94 27.1601 33.44L30.4601 13.65L30.8301 13.16C34.7201 8.01 33.0701 3.76 30.0801 0ZM3.96011 9.55C2.63011 6.44 3.61011 3.79 5.57011 1.17H8.50011C6.16011 3.48 4.32011 6.12 3.96011 9.55ZM29.4101 12.65L25.9801 33.23C25.9501 33.4 25.8501 33.56 25.6901 33.66C25.5501 33.76 25.3601 33.79 25.1801 33.75L23.9701 33.46C23.0501 33.24 22.2701 32.62 21.8401 31.76L19.6901 27.49C19.3201 26.73 18.6201 26.2 17.8201 26.05C17.7601 26.05 17.7101 26.05 17.6601 26.03C16.5101 25.89 15.4101 26.53 14.9301 27.61L13.1101 31.67C12.7001 32.58 11.8701 33.27 10.9001 33.5L9.79011 33.76C9.62011 33.81 9.44011 33.77 9.28011 33.67C9.14011 33.57 9.04011 33.42 9.01011 33.24L5.56011 12.52C5.08011 10.01 6.46011 7.53 8.84011 6.62C9.25011 6.46 9.69011 6.38 10.1301 6.38C10.5601 6.37 11.0001 6.45 11.4201 6.61L12.7801 7.13C15.8401 8.29 19.2001 8.26 22.2401 7.05L23.2801 6.63C24.1101 6.3 25.0201 6.29 25.8501 6.59L26.0501 6.66C28.5101 7.55 29.9201 10.06 29.4101 12.65ZM26.1001 1.17H29.1201C31.2801 3.91 32.4201 6.67 31.0201 9.93C30.6401 6.31 28.6201 3.58 26.1001 1.17Z" fill="#797979"/>
</svg>
