<svg width="34" height="35" viewBox="0 0 34 35" fill="none" xmlns="http://www.w3.org/2000/svg">
<path d="M26.4601 3.3625L26.2701 3.2925C25.1601 2.8925 23.9501 2.9125 22.8501 3.3525L21.8101 3.7625C19.0501 4.8625 15.9901 4.8925 13.2101 3.8325L11.8501 3.3225C10.7401 2.8925 9.53006 2.8925 8.42006 3.3225C5.51006 4.4325 3.82006 7.4725 4.40006 10.5425L7.84006 31.2425C7.92006 31.7425 8.21006 32.2025 8.63006 32.4825C8.93006 32.6825 9.29006 32.7925 9.65006 32.7925V32.8125C9.79006 32.8125 9.93006 32.7925 10.0701 32.7625L11.1701 32.5025C12.5101 32.1825 13.6301 31.2425 14.2001 29.9925L16.0201 25.9425C16.2801 25.3325 16.9101 24.9725 17.5201 25.0425H17.6201C18.0501 25.1325 18.4401 25.4325 18.6501 25.8525L20.8001 30.1225C21.3801 31.3025 22.4401 32.1425 23.7101 32.4525L24.9201 32.7425C25.4101 32.8525 25.9401 32.7625 26.3601 32.4825C26.7901 32.2025 27.0801 31.7525 27.1601 31.2525L30.5901 10.6925C31.2101 7.5325 29.4801 4.4525 26.4601 3.3625ZM29.4201 10.4625L25.9801 31.0425C25.9501 31.2125 25.8501 31.3725 25.7001 31.4725C25.5501 31.5725 25.3701 31.6025 25.1901 31.5625L23.9801 31.2725C23.0501 31.0525 22.2701 30.4325 21.8501 29.5725L19.7001 25.3025C19.3201 24.5425 18.6201 24.0125 17.8201 23.8625C17.7701 23.8625 17.7101 23.8625 17.6601 23.8425C16.5201 23.7025 15.4201 24.3425 14.9301 25.4225L13.1101 29.4825C12.7001 30.3925 11.8701 31.0825 10.9001 31.3125L9.80006 31.5725C9.62006 31.6225 9.44006 31.5825 9.29006 31.4825C9.14006 31.3825 9.04006 31.2325 9.01006 31.0525L5.57006 10.3325C5.09006 7.8225 6.47006 5.3425 8.84006 4.4325C9.26006 4.2725 9.70006 4.1925 10.1401 4.1925C10.3201 4.1825 10.5001 4.1925 10.6801 4.2325L8.18006 9.6125C8.18006 9.6125 8.17006 9.6425 8.16006 9.6525C8.14006 9.7025 8.12006 9.7525 8.11006 9.8025C8.10006 9.8525 8.09006 9.9025 8.09006 9.9525V9.9725C8.09006 10.0425 8.10006 10.1025 8.12006 10.1725C8.13006 10.2125 8.14006 10.2425 8.16006 10.2825C8.18006 10.3425 8.21006 10.3925 8.26006 10.4325C8.28006 10.4725 8.31006 10.5025 8.34006 10.5325C8.39006 10.5725 8.45006 10.6125 8.51006 10.6525C8.60006 10.6925 8.71006 10.7225 8.82006 10.7225H8.84006L13.0601 10.8125L10.5701 15.3125C10.3701 15.6825 10.5001 16.1325 10.8601 16.3325C10.9701 16.4025 11.1001 16.4325 11.2201 16.4325C11.4801 16.4325 11.7401 16.2925 11.8801 16.0425L14.9401 10.5025L14.9801 10.4425C15.0101 10.3825 15.0401 10.3225 15.0501 10.2625C15.0801 10.1425 15.0801 10.0125 15.0501 9.8925C15.0301 9.8325 15.0101 9.7625 14.9701 9.7025C14.9501 9.6525 14.9101 9.6025 14.8701 9.5625C14.8301 9.5225 14.7901 9.4925 14.7501 9.4625C14.7101 9.4425 14.6701 9.4125 14.6301 9.4025C14.5901 9.3825 14.5401 9.3625 14.4901 9.3525C14.4401 9.3325 14.3801 9.3325 14.3301 9.3325L10.0001 9.2425L12.1001 4.7325C12.1001 4.7325 12.1101 4.7025 12.1101 4.6925L12.7801 4.9425C15.8401 6.1025 19.2001 6.0725 22.2401 4.8625L23.2901 4.4425C24.1101 4.1125 25.0201 4.1025 25.8601 4.4025L26.0501 4.4725C28.5101 5.3625 29.9301 7.8725 29.4201 10.4625Z" fill="#797979"/>
<path d="M15.0801 10.0925C15.0801 10.1525 15.0701 10.2125 15.0501 10.2625C15.0801 10.1425 15.0801 10.0125 15.0501 9.8925C15.0701 9.9525 15.0801 10.0225 15.0801 10.0925Z" fill="#797979"/>
<path d="M14.7501 9.4625C14.7501 9.4625 14.6701 9.4125 14.6301 9.4025C14.6501 9.4025 14.6701 9.4125 14.6901 9.4225C14.7101 9.4225 14.7301 9.4425 14.7501 9.4625Z" fill="#797979"/>
</svg>
