<svg width="34" height="35" viewBox="0 0 34 35" fill="none" xmlns="http://www.w3.org/2000/svg">
    <path d="M31.3434 27.2825L27.6234 21.4425C29.4334 20.0725 30.6134 17.8925 30.6134 15.4325C30.6134 13.8225 30.1034 12.3225 29.2334 11.0925L29.3034 10.6925C29.9334 7.5325 28.1934 4.4525 25.1834 3.3625L24.9834 3.2925C23.8734 2.8925 22.6634 2.9125 21.5734 3.3525L20.5234 3.7625C17.7634 4.8625 14.7034 4.8925 11.9234 3.8325L10.5634 3.3225C9.46342 2.8925 8.24341 2.8925 7.14341 3.3225C4.22341 4.4325 2.53342 7.4725 3.11341 10.5425L6.55342 31.2425C6.63341 31.7425 6.92341 32.2025 7.34341 32.4825C7.65341 32.6825 8.00342 32.7925 8.36342 32.7925V32.8125C8.51342 32.8125 8.65341 32.7925 8.79341 32.7625L9.89341 32.5025C11.2234 32.1825 12.3534 31.2425 12.9134 29.9925L14.7334 25.9425C15.0034 25.3325 15.6234 24.9725 16.2434 25.0425H16.3334C16.7734 25.1325 17.1534 25.4325 17.3634 25.8525L19.5134 30.1225C20.1034 31.3025 21.1634 32.1425 22.4334 32.4525L23.6434 32.7425C24.1334 32.8525 24.6534 32.7625 25.0834 32.4825C25.5034 32.2025 25.7934 31.7525 25.8834 31.2525L27.1734 23.5125L30.0834 28.0825C30.2234 28.3125 30.4634 28.4325 30.7134 28.4325C30.8534 28.4325 30.9934 28.3925 31.1134 28.3125C31.4634 28.0925 31.5634 27.6325 31.3434 27.2825ZM26.2034 20.6125C25.2834 21.1825 24.2034 21.5025 23.0434 21.5025C19.6934 21.5025 16.9634 18.7825 16.9634 15.4325C16.9634 12.0825 19.6934 9.3525 23.0434 9.3525C26.3934 9.3525 29.1134 12.0825 29.1134 15.4325C29.1134 17.6225 27.9434 19.5525 26.2034 20.6125ZM24.7034 31.0425C24.6734 31.2125 24.5734 31.3725 24.4134 31.4725C24.2634 31.5725 24.0834 31.6025 23.9034 31.5625L22.6934 31.2725C21.7734 31.0525 20.9934 30.4325 20.5634 29.5725L18.4134 25.3025C18.0334 24.5425 17.3334 24.0125 16.5334 23.8625C16.4834 23.8625 16.4334 23.8625 16.3734 23.8425C15.2334 23.7025 14.1334 24.3425 13.6534 25.4225L11.8334 29.4825C11.4234 30.3925 10.5934 31.0825 9.62341 31.3125L8.51341 31.5725C8.33342 31.6225 8.16341 31.5825 8.00341 31.4825C7.85341 31.3825 7.75342 31.2325 7.72341 31.0525L4.28342 10.3325C3.80342 7.8225 5.18341 5.3425 7.56342 4.4325C7.97341 4.2725 8.41341 4.1925 8.85342 4.1925C9.28341 4.1825 9.72341 4.2625 10.1434 4.4225L11.4934 4.9425C14.5534 6.1025 17.9234 6.0725 20.9634 4.8625L22.0034 4.4425C22.8234 4.1125 23.7434 4.1025 24.5734 4.4025L24.7734 4.4725C27.0634 5.3025 28.4334 7.5225 28.2134 9.9125C26.8634 8.6325 25.0334 7.8525 23.0434 7.8525C18.8634 7.8525 15.4634 11.2525 15.4634 15.4325C15.4634 19.6125 18.8634 23.0025 23.0434 23.0025C24.1434 23.0025 25.2034 22.7625 26.1534 22.3225L24.7034 31.0425Z" fill="#797979"/>
    <path d="M18.8834 14.3625C18.8834 14.3625 18.7934 14.3625 18.7434 14.3525C18.3334 14.2725 18.0734 13.8825 18.1534 13.4725C18.3834 12.2925 19.1134 11.2825 20.1734 10.7125C21.1934 10.1525 22.3934 10.0725 23.4834 10.4725C23.8734 10.6125 24.0734 11.0525 23.9234 11.4325C23.7834 11.8225 23.3434 12.0225 22.9634 11.8725C22.2834 11.6225 21.5234 11.6725 20.8834 12.0225C20.2234 12.3825 19.7634 13.0125 19.6234 13.7525C19.5534 14.1125 19.2434 14.3625 18.8834 14.3625Z" fill="#797979"/>
</svg>