<svg width="34" height="35" viewBox="0 0 34 35" fill="none" xmlns="http://www.w3.org/2000/svg">
<path d="M26.4601 3.3625L26.2701 3.2925C25.1601 2.8925 23.9501 2.9125 22.8501 3.3525L21.8101 3.7625C19.0501 4.8625 15.9901 4.8925 13.2101 3.8325L11.8501 3.3225C10.7401 2.8925 9.52009 2.8925 8.42009 3.3225C5.50009 4.4325 3.81009 7.4725 4.40009 10.5425L7.83009 31.2425C7.92009 31.7425 8.21009 32.2025 8.63009 32.4825C8.93009 32.6825 9.29009 32.7925 9.65009 32.7925V32.8125C9.79009 32.8125 9.93009 32.7925 10.0701 32.7625L11.1701 32.5025C12.5101 32.1825 13.6301 31.2425 14.2001 29.9925L16.0201 25.9425C16.2801 25.3325 16.9101 24.9725 17.5201 25.0425H17.6201C18.0501 25.1325 18.4301 25.4325 18.6501 25.8525L20.7901 30.1225C21.3801 31.3025 22.4401 32.1425 23.7101 32.4525L24.9201 32.7425C25.4101 32.8525 25.9301 32.7625 26.3601 32.4825C26.7901 32.2025 27.0801 31.7525 27.1601 31.2525L29.5701 16.7825L30.5901 10.6925C31.2101 7.5325 29.4701 4.4525 26.4601 3.3625ZM25.9801 31.0425C25.9501 31.2125 25.8501 31.3725 25.7001 31.4725C25.5501 31.5725 25.3701 31.6025 25.1901 31.5625L23.9801 31.2725C23.0501 31.0525 22.2701 30.4325 21.8401 29.5725L19.7001 25.3025C19.3201 24.5425 18.6201 24.0125 17.8201 23.8625C17.7601 23.8625 17.7101 23.8625 17.6601 23.8425C16.5101 23.7025 15.4201 24.3425 14.9301 25.4225L13.1101 29.4825C12.7001 30.3925 11.8701 31.0825 10.9001 31.3125L9.80009 31.5725C9.62009 31.6225 9.44009 31.5825 9.29009 31.4825C9.14009 31.3825 9.04009 31.2325 9.01009 31.0525L6.86009 18.1225H13.3801C13.3701 18.0525 13.3701 17.9725 13.3701 17.8925C13.3701 15.6125 15.2101 13.7625 17.4901 13.7625C19.7701 13.7625 21.6201 15.6125 21.6201 17.8925C21.6201 17.9725 21.6201 18.0525 21.6101 18.1225H28.1301L25.9801 31.0425ZM22.6401 16.7825C22.2001 14.3625 20.0801 12.5225 17.5301 12.5225H17.4601C14.9101 12.5225 12.7901 14.3625 12.3501 16.7825H6.63009L5.56009 10.3325C5.08009 7.8225 6.47009 5.3425 8.84009 4.4325C9.26009 4.2725 9.70009 4.1925 10.1301 4.1925C10.5701 4.1825 11.0101 4.2625 11.4201 4.4225L12.7801 4.9425C15.8401 6.1025 19.2001 6.0725 22.2401 4.8625L23.2801 4.4425C24.1101 4.1125 25.0201 4.1025 25.8601 4.4025L26.0501 4.4725C28.5101 5.3625 29.9201 7.8725 29.4101 10.4625L28.3601 16.7825H22.6401Z" fill="#797979"/>
</svg>
