<svg width="34" height="35" viewBox="0 0 34 35" fill="none" xmlns="http://www.w3.org/2000/svg">
<path d="M23.3565 32.4661C23.2787 32.5356 23.188 32.5625 23.1098 32.5625H11.3198C11.2381 32.5625 11.1433 32.5307 11.0596 32.4464C10.9771 32.3634 10.884 32.2062 10.8577 31.9272C10.8577 31.9268 10.8577 31.9264 10.8576 31.926L10.6085 29.106C10.604 29.0279 10.5984 28.8878 10.6242 28.7339C10.6513 28.5721 10.7063 28.4376 10.7928 28.3464L10.7977 28.3412L10.8024 28.3359C10.878 28.2514 10.9727 28.2125 11.0698 28.2125H23.4798C23.5718 28.2125 23.6706 28.2496 23.7661 28.3547C23.9175 28.5292 23.975 28.8627 23.9345 29.1537L23.934 29.1577L23.5642 31.9864C23.5641 31.9867 23.5641 31.9871 23.564 31.9874C23.5269 32.2643 23.4304 32.3999 23.3565 32.4661ZM25.1898 26.3125V26.3225H8.69978C8.44457 26.3225 8.20297 26.1291 8.15246 25.8372L8.15248 25.8372L8.15164 25.8326L7.79172 23.8631C7.79171 23.863 7.79171 23.863 7.79171 23.863C7.75855 23.6806 7.80744 23.4886 7.92632 23.3397C8.03452 23.2115 8.18453 23.1425 8.33978 23.1425H26.2198C26.3909 23.1425 26.5421 23.2171 26.648 23.3601L26.6498 23.3625C26.7663 23.5178 26.8078 23.7293 26.7567 23.9236C26.7566 23.9239 26.7565 23.9242 26.7564 23.9246L26.2279 25.8792C26.2278 25.8796 26.2277 25.88 26.2276 25.8803C26.1538 26.1451 25.9223 26.3125 25.6898 26.3125H25.1898ZM26.0889 2.7624L26.0889 2.76243L26.0946 2.76443L26.2895 2.83262C26.2904 2.83293 26.2912 2.83323 26.292 2.83353C29.0675 3.83996 30.6717 6.6779 30.0991 9.59623L30.0989 9.5962L30.0966 9.61004L29.0566 15.83L29.0498 15.871V15.9125V15.9425C29.0498 16.0764 28.9336 16.1925 28.7998 16.1925H6.19978C6.06592 16.1925 5.94978 16.0764 5.94978 15.9425V15.9125V15.8712L5.943 15.8304L4.883 9.46043L4.88312 9.46041L4.88109 9.44968C4.34577 6.61618 5.90538 3.81323 8.59745 2.78987L8.59746 2.78989L8.60182 2.78818C9.58425 2.40414 10.6748 2.40355 11.6692 2.78874L11.6692 2.78875L11.6731 2.79024L13.0216 3.29969C13.0219 3.29978 13.0221 3.29987 13.0223 3.29996C15.92 4.40463 19.1089 4.37285 21.9937 3.22745C21.9939 3.22737 21.9941 3.22728 21.9943 3.2272L23.0332 2.81766L23.0355 2.81674C24.0223 2.422 25.1054 2.40475 26.0889 2.7624ZM8.66178 2.96526L8.66121 2.96547C6.05605 3.96156 4.54544 6.67526 5.06757 9.42058L6.04663 15.275L6.11646 15.6925H6.53978H28.4598H28.8837L28.953 15.2743L29.9018 9.55153C30.4546 6.72534 28.9127 3.9773 26.2213 3.00282C26.2208 3.00265 26.2203 3.00249 26.2199 3.00232L26.0326 2.93333L26.0326 2.93331L26.028 2.93163C25.0757 2.59156 24.0402 2.60208 23.0951 2.97787L23.0926 2.97888L22.0549 3.39795C22.0545 3.3981 22.0541 3.39826 22.0537 3.39842C19.1301 4.56174 15.9001 4.59043 12.9577 3.47523C12.9575 3.47514 12.9572 3.47505 12.957 3.47497L11.5984 2.95547L11.5978 2.95526C11.1241 2.77481 10.6319 2.68174 10.1241 2.6925C9.62395 2.69319 9.1356 2.78476 8.66178 2.96526ZM7.03044 20.7863L7.03045 20.7863L7.02968 20.7825L6.62968 18.8225L6.6297 18.8225L6.6289 18.8187C6.59043 18.6374 6.633 18.4655 6.75148 18.3255C6.88395 18.1689 7.04805 18.0925 7.22978 18.0925H27.6298C27.8176 18.0925 28.0013 18.1845 28.1198 18.3425C28.2313 18.4912 28.2662 18.6945 28.2117 18.8759C28.2116 18.8765 28.2114 18.877 28.2113 18.8775L27.6024 20.8339L27.6014 20.8369C27.5252 21.0876 27.2885 21.2625 27.0298 21.2625H7.61978C7.33297 21.2625 7.08332 21.056 7.03044 20.7863ZM7.45998 20.353L7.54193 20.7525H7.94978H26.7298H27.0991L27.2077 20.3995L27.5677 19.2295L27.7668 18.5825H27.0898H7.70978H7.09681L7.21998 19.183L7.45998 20.353ZM8.57765 25.4108L8.65154 25.8225H9.06978H25.3398H25.7214L25.8221 25.4544L26.1421 24.2844L26.3149 23.6525H25.6598H8.85978H8.26205L8.36765 24.2408L8.57765 25.4108ZM11.3316 31.6049L11.3705 32.0625H11.8298H22.6098H23.0482L23.1055 31.6279L23.4155 29.2779L23.4901 28.7125H22.9198H11.6298H11.0854L11.1316 29.2549L11.3316 31.6049Z" fill="#1E1E1E" stroke="#797979"/>
</svg>
