<svg width="34" height="35" viewBox="0 0 34 35" fill="none" xmlns="http://www.w3.org/2000/svg">
<path d="M26.4599 5.55L26.2699 5.48C25.1599 5.08 23.9499 5.1 22.8499 5.54L21.8099 5.95C19.0399 7.05 15.9899 7.08 13.2099 6.02L11.8499 5.51C10.7399 5.08 9.51994 5.08 8.41994 5.51C5.49994 6.62 3.80994 9.66 4.39994 12.73L4.59994 13.93C4.38994 13.96 4.16994 13.98 3.93994 13.98C3.65994 13.98 3.43994 14.2 3.43994 14.48C3.43994 14.76 3.65994 14.98 3.93994 14.98C4.21994 14.98 4.50994 15.01 4.78994 15.06L7.82994 33.43C7.91994 33.93 8.20994 34.39 8.62994 34.67C8.92994 34.87 9.28994 34.98 9.64994 34.98V35C9.78994 35 9.92994 34.98 10.0699 34.95L11.1699 34.69C12.5099 34.37 13.6299 33.43 14.1999 32.18L16.0199 28.13C16.2799 27.52 16.8999 27.16 17.5199 27.23H17.6199C18.0499 27.32 18.4299 27.62 18.6499 28.04L20.7899 32.31C21.3799 33.49 22.4399 34.33 23.7099 34.64L24.9199 34.93C25.4099 35.04 25.9299 34.95 26.3599 34.67C26.7899 34.39 27.0799 33.94 27.1599 33.44L30.5899 12.88C31.2099 9.72 29.4699 6.64 26.4599 5.55ZM28.7899 8.92C27.5199 8.84 26.4799 7.93 26.1899 6.72C27.3199 7.16 28.2099 7.95 28.7899 8.92ZM27.0799 9.43C26.4699 9.78 25.9599 10.3 25.6099 10.91C25.2599 10.3 24.7499 9.79 24.1399 9.45C24.7599 9.1 25.2699 8.58 25.6199 7.96C25.9599 8.58 26.4699 9.09 27.0799 9.43ZM29.4099 12.65L25.9799 33.23C25.9499 33.4 25.8499 33.56 25.6999 33.66C25.5499 33.76 25.3599 33.79 25.1899 33.75L23.9799 33.46C23.0499 33.24 22.2699 32.62 21.8399 31.76L19.6999 27.49C19.3199 26.73 18.6199 26.2 17.8199 26.05C17.7599 26.05 17.7099 26.05 17.6599 26.03C16.5099 25.89 15.4199 26.53 14.9299 27.61L13.1099 31.67C12.6999 32.58 11.8699 33.27 10.8999 33.5L9.79994 33.76C9.61994 33.81 9.43994 33.77 9.28994 33.67C9.13994 33.57 9.03994 33.42 9.00994 33.24L6.05994 15.51C7.45994 16.27 8.40994 17.76 8.41994 19.46C8.41994 19.73 8.64994 19.95 8.91994 19.95C9.18994 19.95 9.41994 19.73 9.41994 19.45C9.41994 16.98 11.4299 14.96 13.9099 14.96C14.1799 14.96 14.4099 14.74 14.4099 14.46C14.4099 14.18 14.1799 13.96 13.9099 13.96C11.4399 13.96 9.42994 11.95 9.41994 9.48C9.41994 9.21 9.19994 8.98 8.91994 8.98C8.63994 8.98 8.41994 9.21 8.41994 9.48C8.41994 11.32 7.30994 12.91 5.73994 13.6L5.55994 12.52C5.07994 10.01 6.45994 7.53 8.83994 6.62C9.25994 6.46 9.69994 6.38 10.1299 6.38C10.5699 6.37 11.0099 6.45 11.4199 6.61L12.7799 7.13C15.8399 8.29 19.1999 8.26 22.2399 7.05L23.2799 6.63C23.8599 6.4 24.4799 6.32 25.0899 6.41C24.9199 7.83 23.6999 8.95 22.2399 8.95C21.9599 8.95 21.7399 9.17 21.7399 9.45C21.7399 9.73 21.9599 9.95 22.2399 9.95C23.8199 9.95 25.1099 11.23 25.1099 12.81C25.1099 13.09 25.3399 13.31 25.6099 13.31C25.8799 13.31 26.1099 13.09 26.1099 12.81C26.1099 11.22 27.3999 9.93 28.9799 9.93C29.0699 9.93 29.1499 9.91 29.2199 9.87C29.5199 10.74 29.5999 11.69 29.4099 12.65ZM6.21994 14.48C7.40994 13.93 8.37994 12.96 8.92994 11.76C9.47994 12.95 10.4399 13.91 11.6199 14.46C10.4299 15.01 9.45994 15.98 8.91994 17.17C8.36994 15.99 7.40994 15.03 6.21994 14.48Z" fill="#797979"/>
<path d="M31.42 19.1301C31.42 19.1301 31.35 19.1301 31.31 19.1301C30.96 19.0701 30.72 18.7401 30.78 18.3801L31.92 11.5601C32.54 8.43005 30.82 5.39005 27.83 4.31005L27.59 4.22005C26.34 3.77005 25.49 3.59005 24.62 3.94005L23.36 4.44005C19.71 5.89005 15.68 5.92005 12.01 4.53005L10.38 3.91005C9.36999 3.53005 8.00999 3.88005 7.04999 4.25005C4.15999 5.35005 2.47999 8.36005 3.05999 11.3901L4.01999 17.1401C4.07999 17.4901 3.83999 17.8301 3.48999 17.8901C3.13999 17.9501 2.79999 17.7101 2.73999 17.3601L1.77999 11.6301C1.07999 7.99005 3.09999 4.37005 6.58999 3.04005C8.28999 2.39005 9.71999 2.28005 10.84 2.70005L12.47 3.32005C15.84 4.59005 19.53 4.56005 22.88 3.23005L24.14 2.73005C25.53 2.18005 26.82 2.56005 28.04 3.00005L28.28 3.09005C31.88 4.38005 33.95 8.04005 33.2 11.7901L32.06 18.5901C32.01 18.9101 31.73 19.1301 31.42 19.1301Z" fill="#797979"/>
</svg>
