<svg width="34" height="35" viewBox="0 0 34 35" fill="none" xmlns="http://www.w3.org/2000/svg">
<g clip-path="url(#clip0_2033_15862)">
<path d="M33.6301 20.78C32.0101 19.76 30.2501 19.51 28.8701 19.52L30.5801 9.28002C31.2001 6.12002 29.4701 3.04002 26.4501 1.95002L26.2601 1.88002C25.1501 1.47002 23.9401 1.50002 22.8401 1.93002L21.8001 2.35002C19.0401 3.45002 15.9801 3.48002 13.2001 2.42002L11.8401 1.90002C10.7301 1.48002 9.52007 1.48002 8.41007 1.90002C5.50007 3.02002 3.81007 6.06002 4.39007 9.13002L6.12007 19.52C4.74007 19.51 2.98007 19.76 1.36007 20.78C-0.409928 21.89 -1.56993 23.69 -1.73993 25.59C-1.77993 25.92 -1.52993 26.21 -1.20993 26.24H-1.14993C-0.849927 26.24 -0.599928 26.01 -0.569928 25.7C-0.419928 24.19 0.550073 22.69 1.98007 21.79C3.17007 21.05 4.69007 20.68 6.32007 20.72L7.83007 29.83C7.91007 30.33 8.20007 30.78 8.62007 31.06C8.92007 31.27 9.28007 31.37 9.64007 31.37V31.39C9.78007 31.39 9.93007 31.37 10.0601 31.34L11.1701 31.08C12.5001 30.77 13.6301 29.83 14.1901 28.58L16.0101 24.52C16.2801 23.92 16.9001 23.56 17.5101 23.63H17.6101C18.0401 23.71 18.4301 24.02 18.6401 24.44L20.7901 28.71C21.3701 29.89 22.4401 30.73 23.7001 31.04L24.9101 31.33C25.4101 31.44 25.9301 31.35 26.3501 31.07C26.7801 30.79 27.0701 30.34 27.1501 29.84L28.6701 20.72C30.3001 20.68 31.8201 21.05 33.0101 21.79C34.4401 22.69 35.4201 24.19 35.5601 25.7C35.5901 26.01 35.8401 26.24 36.1401 26.24H36.2001C36.5201 26.21 36.7701 25.92 36.7301 25.59C36.5601 23.69 35.4001 21.89 33.6301 20.78ZM25.9701 29.62C25.9401 29.8 25.8401 29.96 25.6901 30.06C25.5401 30.16 25.3601 30.19 25.1801 30.15L23.9701 29.86C23.0501 29.64 22.2601 29.02 21.8401 28.16L19.6901 23.89C19.3101 23.13 18.6101 22.59 17.8101 22.45C17.7601 22.44 17.7001 22.43 17.6501 22.43C16.5101 22.29 15.4101 22.93 14.9201 24.01L13.1001 28.07C12.6901 28.98 11.8601 29.66 10.8901 29.9L9.79007 30.16C9.61007 30.21 9.43007 30.17 9.28007 30.07C9.13007 29.97 9.03007 29.81 9.00007 29.64L7.40007 20.03L5.56007 8.92002C5.08007 6.41002 6.46007 3.93002 8.84007 3.02002C9.25007 2.86002 9.69007 2.78002 10.1301 2.78002C10.5601 2.77002 11.0001 2.85002 11.4101 3.01002L12.7701 3.52002C15.8301 4.69002 19.1901 4.66002 22.2301 3.45002L23.2801 3.03002C24.1001 2.70002 25.0101 2.68002 25.8501 2.99002L26.0501 3.06002C28.5101 3.95002 29.9201 6.45002 29.4101 9.05002L25.9701 29.62Z" fill="#797979"/>
</g>
<defs>
<clipPath id="clip0_2033_15862">
<rect width="34" height="35" fill="white"/>
</clipPath>
</defs>
</svg>
