<svg width="32" height="40" viewBox="0 0 32 40" fill="none" xmlns="http://www.w3.org/2000/svg">
<g clip-path="url(#clip0_298_13475)">
<path d="M16.4034 13.3363C20.8701 13.3363 24.5016 9.68114 24.5134 5.17884H20.5325C20.5325 7.47738 18.6782 9.35531 16.4093 9.35531C14.1345 9.35531 12.2862 7.47146 12.2862 5.16699H8.30518C8.30518 9.66929 11.9307 13.3363 16.4034 13.3363Z" fill="#B89A81"/>
<path d="M10.2723 17.7917C11.6527 13.5382 9.3008 8.95301 5.02361 7.55493L3.78548 11.3463C5.97739 12.0632 7.19183 14.3972 6.48686 16.5595C5.7819 18.7159 3.42412 19.8948 1.22628 19.1839L0 22.9694C4.28311 24.3675 8.89204 22.0452 10.2723 17.7917Z" fill="#B89A81"/>
<path d="M12.6182 24.9894C9.00448 22.3651 3.9157 23.1826 1.26172 26.8259L4.48442 29.1718C5.84103 27.3057 8.4417 26.8792 10.2782 28.2121C12.1146 29.551 12.5056 32.1575 11.149 34.0236L14.3658 36.3636C17.0138 32.7263 16.2319 27.6197 12.6182 24.9894C12.6182 24.9894 12.6182 24.9894 12.6122 24.9894H12.6182Z" fill="#B89A81"/>
<path d="M20.1892 24.9892C16.5755 27.6136 15.7876 32.7083 18.4298 36.3516L21.6525 34.0116C20.3018 32.1455 20.6987 29.5389 22.5352 28.206C24.3775 26.8731 26.9782 27.3055 28.3348 29.1775L31.5516 26.8375C28.9095 23.1942 23.8148 22.3589 20.1951 24.9833C20.1951 24.9833 20.1951 24.9833 20.1892 24.9833" fill="#B89A81"/>
<path d="M22.5352 17.7851C23.9155 22.0327 28.5126 24.3609 32.8016 22.9746L31.5753 19.1832C29.3834 19.8941 27.0256 18.7152 26.3266 16.5529C25.6275 14.3847 26.842 12.0447 29.0398 11.3338L27.8076 7.54834C23.5245 8.93457 21.1608 13.5198 22.5352 17.7733C22.5352 17.7733 22.5352 17.7792 22.5352 17.7851Z" fill="#B89A81"/>
</g>
<defs>
<clipPath id="clip0_298_13475">
<rect width="32" height="32" fill="white" transform="translate(0 4)"/>
</clipPath>
</defs>
</svg>
