<svg width="160" height="37" viewBox="0 0 160 37" fill="none" xmlns="http://www.w3.org/2000/svg">
<path d="M37.5593 21.6688C41.7421 21.6688 45.1184 18.2029 44.9677 13.9875C44.8252 9.97174 41.404 6.8479 37.3842 6.8479H29.3608V8.72953H37.205C37.4412 8.72953 37.6815 8.73361 37.9177 8.76619C40.6221 9.14089 42.7033 11.4542 42.7033 14.2563C42.7033 17.0584 40.6221 19.3758 37.9177 19.7505C37.6815 19.7831 37.4412 19.7872 37.205 19.7872H30.0491L29.3567 21.6688H37.5593Z" fill="#1D1D1B"/>
<path d="M31.7434 6.84375H29.3567V21.6687H31.7434V6.84375Z" fill="#1D1D1B"/>
<path d="M60.2286 16.5371C60.2286 16.5371 60.9739 10.3994 53.7651 10.3994C48.8003 10.3994 47.0857 13.2952 47.0857 15.9954C47.0857 18.6957 48.4053 21.8073 53.7854 21.8073C60.2245 21.8073 60.2245 17.983 60.2245 17.983H58.123C58.123 17.983 57.9356 20.2108 53.7854 20.2108C49.6353 20.2108 49.1832 18.0359 49.1832 15.8244C49.1832 13.7717 50.2665 11.9552 53.7854 11.9552C57.4795 11.9552 58.4488 13.9713 58.0212 16.5371H60.2245H60.2286Z" fill="#1D1D1B"/>
<path d="M59.1817 15.1726H48.1484V16.5329H59.1817V15.1726Z" fill="#1D1D1B"/>
<path d="M64.6681 10.5825H62.4077V21.6402H64.6681V10.5825Z" fill="#1D1D1B"/>
<path d="M117.219 21.6402H114.959L109.75 6.84375H112.014L117.219 21.6402Z" fill="#1D1D1B"/>
<path d="M115.794 21.6402H118.054L122.135 6.84375H119.875L115.794 21.6402Z" fill="#1D1D1B"/>
<path d="M125.483 21.6402H127.743L132.948 6.84375H130.688L125.483 21.6402Z" fill="#1D1D1B"/>
<path d="M126.908 21.6402H124.644L120.563 6.84375H122.827L126.908 21.6402Z" fill="#1D1D1B"/>
<path d="M154.379 21.6402H152.29L146.136 10.5825H148.604L154.379 21.6402Z" fill="#1D1D1B"/>
<path d="M149.623 26.9389H151.712L160 10.5825H157.85L149.623 26.9389Z" fill="#1D1D1B"/>
<path d="M104.781 5.25928H102.521V21.6401H104.781V5.25928Z" fill="#1D1D1B"/>
<path d="M74.7846 14.9446V21.6444H72.5242V15.3234C72.5242 12.9815 70.7281 12.0855 68.5329 12.1914C66.2603 12.3014 64.6719 13.5721 64.6719 15.5311H63.9673V12.334H65.2136C66.0363 11.3239 67.5717 10.4645 69.6448 10.4075C71.95 10.3464 74.7887 11.3931 74.7887 14.9446" fill="#1D1D1B"/>
<path d="M86.2498 10.6069H75.9619V12.3297H86.2498V10.6069Z" fill="#1D1D1B"/>
<path d="M83.9933 16.9483V18.2272C83.9933 19.1029 83.3172 19.8278 82.4415 19.8889C82.2053 19.9052 81.9691 19.9052 81.7329 19.8889C80.8613 19.8278 80.1811 19.1029 80.1811 18.2272V7.30396H77.9248V18.0236C77.9248 20.0437 79.5254 21.6972 81.5415 21.7705C81.9039 21.7828 82.2664 21.7828 82.6248 21.7705C84.6449 21.7013 86.2415 20.0437 86.2415 18.0236V16.9524H83.9851L83.9933 16.9483Z" fill="#1D1D1B"/>
<path d="M100.386 14.3173V21.632H98.1789V14.3173C98.1789 13.0262 97.0915 11.9306 94.3179 11.9306C91.5443 11.9306 90.5302 13.185 90.5302 14.2562H88.335C88.335 13.0954 89.0396 10.4277 94.4238 10.4277C99.808 10.4277 100.386 13.0506 100.386 14.3213" fill="#1D1D1B"/>
<path d="M98.7695 15.2458H92.2734C90.4447 15.2458 87.9929 15.979 87.9929 18.4959C87.9929 21.0129 90.1434 21.7868 92.6196 21.7868C95.0959 21.7868 96.9083 21.1148 98.1831 19.2861V17.1601C98.1831 17.1601 98.3012 20.235 93.5238 20.235C91.6951 20.235 90.2085 19.8033 90.2085 18.2556C90.2085 16.708 92.1024 16.5573 93.0717 16.5573H98.517L98.7736 15.2458H98.7695Z" fill="#1D1D1B"/>
<path d="M145.114 14.3173V21.632H142.906V14.3173C142.906 13.0262 141.819 11.9306 139.045 11.9306C136.272 11.9306 135.258 13.185 135.258 14.2562H133.062C133.062 13.0954 133.767 10.4277 139.151 10.4277C144.536 10.4277 145.114 13.0506 145.114 14.3213" fill="#1D1D1B"/>
<path d="M143.497 15.2458H137.001C135.172 15.2458 132.72 15.979 132.72 18.4959C132.72 21.0129 134.871 21.7868 137.347 21.7868C139.823 21.7868 141.636 21.1148 142.911 19.2861V17.1601C142.911 17.1601 143.029 20.235 138.251 20.235C136.423 20.235 134.936 19.8033 134.936 18.2556C134.936 16.708 136.83 16.5573 137.799 16.5573H143.245L143.501 15.2458H143.497Z" fill="#1D1D1B"/>
<path d="M11.2775 11.0956C14.3484 11.0956 16.845 8.58272 16.8531 5.48739H14.1162C14.1162 7.06764 12.8414 8.35872 11.2816 8.35872C9.7176 8.35872 8.44688 7.06357 8.44688 5.47925H5.70996C5.70996 8.57458 8.20252 11.0956 11.2775 11.0956Z" fill="#B89A81"/>
<path d="M7.06224 14.1584C8.0112 11.2341 6.3943 8.08179 3.45374 7.12061L2.60252 9.7272C4.10946 10.22 4.94438 11.8247 4.45972 13.3113C3.97505 14.7938 2.35408 15.6043 0.84307 15.1155L0 17.718C2.94464 18.6792 6.11327 17.0827 7.06224 14.1584Z" fill="#B89A81"/>
<path d="M8.67499 19.1068C6.19058 17.3026 2.69205 17.8646 0.867432 20.3694L3.08304 21.9822C4.01571 20.6993 5.80367 20.4061 7.06624 21.3224C8.3288 22.2429 8.59761 24.0349 7.66494 25.3179L9.87647 26.9266C11.697 24.4259 11.1594 20.9152 8.67499 19.1068C8.67499 19.1068 8.67499 19.1068 8.67092 19.1068H8.67499Z" fill="#B89A81"/>
<path d="M13.88 19.1069C11.3956 20.9112 10.8539 24.4138 12.6704 26.9186L14.886 25.3098C13.9574 24.0269 14.2303 22.2349 15.4928 21.3185C16.7595 20.4021 18.5474 20.6994 19.4801 21.9864L21.6916 20.3777C19.8752 17.8729 16.3726 17.2986 13.8841 19.1029C13.8841 19.1029 13.8841 19.1029 13.88 19.1029" fill="#B89A81"/>
<path d="M15.493 14.1545C16.442 17.0747 19.6025 18.6753 22.5512 17.7223L21.7081 15.1157C20.2012 15.6044 18.5802 14.7939 18.0996 13.3074C17.619 11.8167 18.4539 10.208 19.965 9.71922L19.1178 7.1167C16.1732 8.06973 14.5481 11.2221 15.493 14.1464C15.493 14.1464 15.493 14.1504 15.493 14.1545Z" fill="#B89A81"/>
<path d="M33.2175 26.7468L31.4421 30.0407C31.3013 30.3033 31.1357 30.4993 30.9454 30.6287C30.7551 30.7581 30.5477 30.8228 30.3232 30.8228C30.1481 30.8228 29.9693 30.7828 29.7866 30.7029L29.935 30.2462C30.0758 30.2957 30.2014 30.3204 30.3118 30.3204C30.563 30.3204 30.7704 30.1872 30.934 29.9208L31.0254 29.7781L29.4155 26.7468H30.0263L31.3222 29.2815L32.6523 26.7468H33.2175Z" fill="#1D1D1B"/>
<path d="M37.6574 30.7429L37.6517 27.8315L36.2074 30.2576H35.9448L34.5005 27.8486V30.7429H33.9525V26.7468H34.4206L36.0875 29.5555L37.7316 26.7468H38.1997L38.2054 30.7429H37.6574Z" fill="#1D1D1B"/>
<path d="M43.0285 26.7468V30.7429H42.4577V28.9618H40.1628V30.7429H39.592V26.7468H40.1628V28.4651H42.4577V26.7468H43.0285Z" fill="#1D1D1B"/>
<path d="M47.0149 29.7439H44.8913L44.4518 30.7429H43.8638L45.6734 26.7468H46.2385L48.0539 30.7429H47.4545L47.0149 29.7439ZM46.8151 29.2872L45.9531 27.3291L45.0911 29.2872H46.8151Z" fill="#1D1D1B"/>
<path d="M51.6252 26.7468V30.7429H51.0658V29.5783H49.964C49.8955 29.5783 49.8442 29.5764 49.8099 29.5726L49.0107 30.7429H48.4056L49.2904 29.4756C49.005 29.3804 48.7862 29.2225 48.6339 29.0017C48.4817 28.7772 48.4056 28.5051 48.4056 28.1854C48.4056 27.7325 48.5502 27.3805 48.8394 27.1293C49.1325 26.8743 49.5264 26.7468 50.0211 26.7468H51.6252ZM48.9822 28.1797C48.9822 28.4765 49.0678 28.7049 49.239 28.8647C49.4141 29.0208 49.671 29.0988 50.0097 29.0988H51.0658V27.2435H50.044C49.7014 27.2435 49.4388 27.3234 49.2562 27.4832C49.0735 27.6431 48.9822 27.8752 48.9822 28.1797Z" fill="#1D1D1B"/>
<path d="M56.4775 30.7885C56.0779 30.7885 55.7164 30.701 55.3929 30.5259C55.0732 30.3471 54.822 30.1035 54.6394 29.7952C54.4567 29.4832 54.3654 29.133 54.3654 28.7449C54.3654 28.3567 54.4567 28.0084 54.6394 27.7002C54.822 27.3881 55.0751 27.1445 55.3986 26.9695C55.7221 26.7906 56.0836 26.7012 56.4832 26.7012C56.7953 26.7012 57.0808 26.7545 57.3395 26.861C57.5983 26.9638 57.8191 27.1179 58.0017 27.3234L57.6307 27.6831C57.33 27.3672 56.9552 27.2092 56.5061 27.2092C56.2092 27.2092 55.9409 27.2758 55.7012 27.409C55.4614 27.5422 55.273 27.7268 55.136 27.9628C55.0028 28.1949 54.9362 28.4556 54.9362 28.7449C54.9362 29.0341 55.0028 29.2967 55.136 29.5326C55.273 29.7648 55.4614 29.9475 55.7012 30.0807C55.9409 30.2139 56.2092 30.2805 56.5061 30.2805C56.9514 30.2805 57.3262 30.1206 57.6307 29.8009L58.0017 30.1606C57.8191 30.3661 57.5964 30.5221 57.3338 30.6287C57.075 30.7352 56.7896 30.7885 56.4775 30.7885Z" fill="#1D1D1B"/>
<path d="M61.6322 27.2435H60.2621V30.7429H59.7027V27.2435H58.3383V26.7468H61.6322V27.2435Z" fill="#1D1D1B"/>
<path d="M64.2112 30.7885C63.8078 30.7885 63.4443 30.701 63.1208 30.5259C62.7973 30.3471 62.5424 30.1016 62.3559 29.7895C62.1732 29.4775 62.0819 29.1292 62.0819 28.7449C62.0819 28.3605 62.1732 28.0122 62.3559 27.7002C62.5424 27.3881 62.7973 27.1445 63.1208 26.9695C63.4443 26.7906 63.8078 26.7012 64.2112 26.7012C64.6108 26.7012 64.9723 26.7906 65.2958 26.9695C65.6193 27.1445 65.8724 27.3881 66.0551 27.7002C66.2377 28.0084 66.3291 28.3567 66.3291 28.7449C66.3291 29.133 66.2377 29.4832 66.0551 29.7952C65.8724 30.1035 65.6193 30.3471 65.2958 30.5259C64.9723 30.701 64.6108 30.7885 64.2112 30.7885ZM64.2112 30.2805C64.5042 30.2805 64.7668 30.2139 64.999 30.0807C65.2349 29.9475 65.4195 29.7648 65.5527 29.5326C65.6897 29.2967 65.7582 29.0341 65.7582 28.7449C65.7582 28.4556 65.6897 28.1949 65.5527 27.9628C65.4195 27.7268 65.2349 27.5422 64.999 27.409C64.7668 27.2758 64.5042 27.2092 64.2112 27.2092C63.9181 27.2092 63.6517 27.2758 63.412 27.409C63.176 27.5422 62.9895 27.7268 62.8525 27.9628C62.7193 28.1949 62.6527 28.4556 62.6527 28.7449C62.6527 29.0341 62.7193 29.2967 62.8525 29.5326C62.9895 29.7648 63.176 29.9475 63.412 30.0807C63.6517 30.2139 63.9181 30.2805 64.2112 30.2805Z" fill="#1D1D1B"/>
<path d="M71.0995 30.7429L71.0938 27.8315L69.6495 30.2576H69.3869L67.9426 27.8486V30.7429H67.3946V26.7468H67.8627L69.5296 29.5555L71.1737 26.7468H71.6418L71.6475 30.7429H71.0995Z" fill="#1D1D1B"/>
<path d="M75.6315 29.7439H73.5079L73.0683 30.7429H72.4804L74.29 26.7468H74.8551L76.6705 30.7429H76.0711L75.6315 29.7439ZM75.4317 29.2872L74.5697 27.3291L73.7077 29.2872H75.4317Z" fill="#1D1D1B"/>
<path d="M80.048 27.2435H78.6779V30.7429H78.1185V27.2435H76.7541V26.7468H80.048V27.2435Z" fill="#1D1D1B"/>
<path d="M82.627 30.7885C82.2236 30.7885 81.8601 30.701 81.5366 30.5259C81.2132 30.3471 80.9582 30.1016 80.7717 29.7895C80.589 29.4775 80.4977 29.1292 80.4977 28.7449C80.4977 28.3605 80.589 28.0122 80.7717 27.7002C80.9582 27.3881 81.2132 27.1445 81.5366 26.9695C81.8601 26.7906 82.2236 26.7012 82.627 26.7012C83.0266 26.7012 83.3881 26.7906 83.7116 26.9695C84.0351 27.1445 84.2882 27.3881 84.4709 27.7002C84.6535 28.0084 84.7449 28.3567 84.7449 28.7449C84.7449 29.133 84.6535 29.4832 84.4709 29.7952C84.2882 30.1035 84.0351 30.3471 83.7116 30.5259C83.3881 30.701 83.0266 30.7885 82.627 30.7885ZM82.627 30.2805C82.92 30.2805 83.1826 30.2139 83.4148 30.0807C83.6507 29.9475 83.8353 29.7648 83.9685 29.5326C84.1055 29.2967 84.174 29.0341 84.174 28.7449C84.174 28.4556 84.1055 28.1949 83.9685 27.9628C83.8353 27.7268 83.6507 27.5422 83.4148 27.409C83.1826 27.2758 82.92 27.2092 82.627 27.2092C82.3339 27.2092 82.0675 27.2758 81.8278 27.409C81.5918 27.5422 81.4053 27.7268 81.2683 27.9628C81.1351 28.1949 81.0685 28.4556 81.0685 28.7449C81.0685 29.0341 81.1351 29.2967 81.2683 29.5326C81.4053 29.7648 81.5918 29.9475 81.8278 30.0807C82.0675 30.2139 82.3339 30.2805 82.627 30.2805Z" fill="#1D1D1B"/>
<path d="M88.9642 26.7468V30.7429H88.4048V27.2435H86.6351L86.5952 28.4138C86.5761 28.9656 86.5305 29.4128 86.4582 29.7553C86.3897 30.0978 86.2793 30.3566 86.1271 30.5316C85.9748 30.7029 85.7693 30.7885 85.5105 30.7885C85.3926 30.7885 85.2727 30.7733 85.1509 30.7429L85.1909 30.2348C85.2518 30.25 85.3126 30.2576 85.3735 30.2576C85.5372 30.2576 85.6685 30.1929 85.7674 30.0635C85.8664 29.9303 85.9406 29.7324 85.9901 29.4698C86.0395 29.2072 86.0719 28.8609 86.0871 28.4309L86.1499 26.7468H88.9642Z" fill="#1D1D1B"/>
<path d="M92.1499 30.7885C91.7465 30.7885 91.383 30.701 91.0595 30.5259C90.736 30.3471 90.481 30.1016 90.2946 29.7895C90.1119 29.4775 90.0206 29.1292 90.0206 28.7449C90.0206 28.3605 90.1119 28.0122 90.2946 27.7002C90.481 27.3881 90.736 27.1445 91.0595 26.9695C91.383 26.7906 91.7465 26.7012 92.1499 26.7012C92.5495 26.7012 92.911 26.7906 93.2345 26.9695C93.558 27.1445 93.8111 27.3881 93.9937 27.7002C94.1764 28.0084 94.2678 28.3567 94.2678 28.7449C94.2678 29.133 94.1764 29.4832 93.9937 29.7952C93.8111 30.1035 93.558 30.3471 93.2345 30.5259C92.911 30.701 92.5495 30.7885 92.1499 30.7885ZM92.1499 30.2805C92.4429 30.2805 92.7055 30.2139 92.9377 30.0807C93.1736 29.9475 93.3582 29.7648 93.4914 29.5326C93.6284 29.2967 93.6969 29.0341 93.6969 28.7449C93.6969 28.4556 93.6284 28.1949 93.4914 27.9628C93.3582 27.7268 93.1736 27.5422 92.9377 27.409C92.7055 27.2758 92.4429 27.2092 92.1499 27.2092C91.8568 27.2092 91.5904 27.2758 91.3507 27.409C91.1147 27.5422 90.9282 27.7268 90.7912 27.9628C90.658 28.1949 90.5914 28.4556 90.5914 28.7449C90.5914 29.0341 90.658 29.2967 90.7912 29.5326C90.9282 29.7648 91.1147 29.9475 91.3507 30.0807C91.5904 30.2139 91.8568 30.2805 92.1499 30.2805Z" fill="#1D1D1B"/>
<path d="M97.9478 27.2435H95.8927L95.8985 30.7429H95.3333V26.7468H97.9536L97.9478 27.2435Z" fill="#1D1D1B"/>
<path d="M98.7763 26.7468H99.3415V29.8295L101.705 26.7468H102.23V30.7429H101.671V27.6659L99.3015 30.7429H98.7763V26.7468Z" fill="#1D1D1B"/>
<path d="M106.547 26.7468V30.7429H105.988V29.5783H104.886C104.817 29.5783 104.766 29.5764 104.732 29.5726L103.933 30.7429H103.327L104.212 29.4756C103.927 29.3804 103.708 29.2225 103.556 29.0017C103.404 28.7772 103.327 28.5051 103.327 28.1854C103.327 27.7325 103.472 27.3805 103.761 27.1293C104.054 26.8743 104.448 26.7468 104.943 26.7468H106.547ZM103.904 28.1797C103.904 28.4765 103.99 28.7049 104.161 28.8647C104.336 29.0208 104.593 29.0988 104.932 29.0988H105.988V27.2435H104.966C104.623 27.2435 104.361 27.3234 104.178 27.4832C103.995 27.6431 103.904 27.8752 103.904 28.1797Z" fill="#1D1D1B"/>
</svg>
