<svg width="248" height="59" viewBox="0 0 248 59" fill="none" xmlns="http://www.w3.org/2000/svg">
<path d="M58.217 34.3372C64.7003 34.3372 69.9336 28.965 69.7001 22.4312C69.4791 16.2067 64.1763 11.3647 57.9455 11.3647H45.5092V14.2813H57.6678C58.0339 14.2813 58.4064 14.2876 58.7725 14.3381C62.9642 14.9189 66.1901 18.5046 66.1901 22.8478C66.1901 27.191 62.9642 30.783 58.7725 31.3638C58.4064 31.4143 58.0339 31.4206 57.6678 31.4206H46.5761L45.5029 34.3372H58.217Z" fill="#1D1D1B"/>
<path d="M49.2023 11.3584H45.5029V34.3371H49.2023V11.3584Z" fill="#1D1D1B"/>
<path d="M93.3545 26.3831C93.3545 26.3831 94.5097 16.8696 83.336 16.8696C75.6406 16.8696 72.9829 21.3581 72.9829 25.5435C72.9829 29.7289 75.0283 34.5519 83.3675 34.5519C93.3481 34.5519 93.3481 28.6241 93.3481 28.6241H90.0907C90.0907 28.6241 89.8003 32.0773 83.3675 32.0773C76.9347 32.0773 76.234 28.7062 76.234 25.2783C76.234 22.0967 77.9132 19.2811 83.3675 19.2811C89.0933 19.2811 90.5957 22.406 89.9329 26.3831H93.3481H93.3545Z" fill="#1D1D1B"/>
<path d="M91.7316 24.2683H74.6301V26.3768H91.7316V24.2683Z" fill="#1D1D1B"/>
<path d="M100.236 17.1536H96.7319V34.2929H100.236V17.1536Z" fill="#1D1D1B"/>
<path d="M181.69 34.293H178.186L170.112 11.3584H173.622L181.69 34.293Z" fill="#1D1D1B"/>
<path d="M179.48 34.293H182.984L189.309 11.3584H185.806L179.48 34.293Z" fill="#1D1D1B"/>
<path d="M194.499 34.293H198.002L206.07 11.3584H202.566L194.499 34.293Z" fill="#1D1D1B"/>
<path d="M196.708 34.293H193.198L186.873 11.3584H190.382L196.708 34.293Z" fill="#1D1D1B"/>
<path d="M239.288 34.2929H236.049L226.511 17.1536H230.336L239.288 34.2929Z" fill="#1D1D1B"/>
<path d="M231.915 42.5059H235.153L248 17.1536H244.667L231.915 42.5059Z" fill="#1D1D1B"/>
<path d="M162.41 8.90259H158.907V34.2928H162.41V8.90259Z" fill="#1D1D1B"/>
<path d="M115.916 23.9148V34.2994H112.412V24.5019C112.412 20.872 109.628 19.4832 106.226 19.6473C102.703 19.8178 100.241 21.7874 100.241 24.8238H99.1492V19.8683H101.081C102.356 18.3027 104.736 16.9707 107.949 16.8823C111.522 16.7876 115.922 18.41 115.922 23.9148" fill="#1D1D1B"/>
<path d="M133.687 17.1914H117.741V19.8617H133.687V17.1914Z" fill="#1D1D1B"/>
<path d="M130.19 27.0206V29.0028C130.19 30.3601 129.142 31.4838 127.785 31.5785C127.418 31.6037 127.052 31.6037 126.686 31.5785C125.335 31.4838 124.281 30.3601 124.281 29.0028V12.0718H120.784V28.6872C120.784 31.8183 123.265 34.3814 126.389 34.495C126.951 34.5139 127.513 34.5139 128.069 34.495C131.2 34.3877 133.675 31.8183 133.675 28.6872V27.0269H130.177L130.19 27.0206Z" fill="#1D1D1B"/>
<path d="M155.599 22.9426V34.2804H152.177V22.9426C152.177 20.9414 150.492 19.2433 146.193 19.2433C141.893 19.2433 140.322 21.1876 140.322 22.8479H136.919C136.919 21.0487 138.011 16.9138 146.357 16.9138C154.702 16.9138 155.599 20.9793 155.599 22.9489" fill="#1D1D1B"/>
<path d="M153.093 24.3818H143.024C140.189 24.3818 136.389 25.5181 136.389 29.4195C136.389 33.3208 139.722 34.5203 143.56 34.5203C147.399 34.5203 150.208 33.4786 152.184 30.6442V27.3489C152.184 27.3489 152.367 32.1151 144.962 32.1151C142.127 32.1151 139.823 31.4459 139.823 29.047C139.823 26.6481 142.759 26.4146 144.261 26.4146H152.701L153.099 24.3818H153.093Z" fill="#1D1D1B"/>
<path d="M224.927 22.9426V34.2804H221.505V22.9426C221.505 20.9414 219.819 19.2433 215.52 19.2433C211.221 19.2433 209.649 21.1876 209.649 22.8479H206.247C206.247 21.0487 207.339 16.9138 215.685 16.9138C224.03 16.9138 224.927 20.9793 224.927 22.9489" fill="#1D1D1B"/>
<path d="M222.42 24.3818H212.351C209.517 24.3818 205.717 25.5181 205.717 29.4195C205.717 33.3208 209.05 34.5203 212.888 34.5203C216.726 34.5203 219.535 33.4786 221.511 30.6442V27.3489C221.511 27.3489 221.694 32.1151 214.289 32.1151C211.455 32.1151 209.151 31.4459 209.151 29.047C209.151 26.6481 212.086 26.4146 213.589 26.4146H222.029L222.427 24.3818H222.42Z" fill="#1D1D1B"/>
<path d="M17.48 17.9491C22.2399 17.9491 26.1097 14.054 26.1223 9.25628H21.88C21.88 11.7057 19.9041 13.7068 17.4863 13.7068C15.0622 13.7068 13.0926 11.6993 13.0926 9.24365H8.85034C8.85034 14.0414 12.7138 17.9491 17.48 17.9491Z" fill="#B89A81"/>
<path d="M10.9465 22.6962C12.4174 18.1636 9.91116 13.2774 5.35329 11.7876L4.03391 15.8278C6.36966 16.5917 7.66379 19.0789 6.91256 21.3831C6.16133 23.681 3.64882 24.9372 1.30676 24.1797L0 28.2136C4.56418 29.7034 9.47558 27.2288 10.9465 22.6962Z" fill="#B89A81"/>
<path d="M13.4464 30.3664C9.59561 27.5698 4.17288 28.441 1.34473 32.3234L4.77891 34.8233C6.22455 32.8347 8.99589 32.3802 10.9529 33.8006C12.9099 35.2273 13.3265 38.0049 11.8809 39.9935L15.3087 42.4871C18.1306 38.611 17.2973 33.1693 13.4464 30.3664C13.4464 30.3664 13.4464 30.3664 13.4401 30.3664H13.4464Z" fill="#B89A81"/>
<path d="M21.5142 30.3664C17.6633 33.163 16.8237 38.5921 19.6393 42.4745L23.0734 39.9809C21.6341 37.9923 22.0571 35.2147 24.0141 33.7943C25.9774 32.3739 28.7487 32.8348 30.1943 34.8296L33.6222 32.336C30.8067 28.4536 25.3776 27.5635 21.5205 30.3601C21.5205 30.3601 21.5205 30.3601 21.5142 30.3601" fill="#B89A81"/>
<path d="M24.014 22.6901C25.4849 27.2164 30.3836 29.6973 34.9541 28.2201L33.6474 24.1799C31.3116 24.9375 28.7991 23.6812 28.0542 21.377C27.3093 19.0665 28.6034 16.5729 30.9455 15.8154L29.6324 11.7815C25.0682 13.2587 22.5494 18.1448 24.014 22.6775C24.014 22.6775 24.014 22.6838 24.014 22.6901Z" fill="#B89A81"/>
<path d="M51.487 42.2085L48.7352 47.314C48.5169 47.721 48.2603 48.0248 47.9653 48.2253C47.6704 48.4259 47.3489 48.5262 47.0009 48.5262C46.7295 48.5262 46.4523 48.4643 46.1691 48.3404L46.3992 47.6325C46.6175 47.7092 46.8121 47.7475 46.9832 47.7475C47.3725 47.7475 47.694 47.5411 47.9476 47.1282L48.0892 46.9069L45.594 42.2085H46.5408L48.5493 46.1371L50.611 42.2085H51.487Z" fill="#1D1D1B"/>
<path d="M58.3688 48.4023L58.36 43.8897L56.1214 47.6502H55.7143L53.4757 43.9162V48.4023H52.6263V42.2085H53.3518L55.9355 46.5619L58.4839 42.2085H59.2094L59.2183 48.4023H58.3688Z" fill="#1D1D1B"/>
<path d="M66.6941 42.2085V48.4023H65.8093V45.6416H62.2523V48.4023H61.3675V42.2085H62.2523V44.8718H65.8093V42.2085H66.6941Z" fill="#1D1D1B"/>
<path d="M72.873 46.8539H69.5815L68.9001 48.4023H67.9888L70.7937 42.2085H71.6697L74.4834 48.4023H73.5544L72.873 46.8539ZM72.5634 46.146L71.2273 43.111L69.8912 46.146H72.5634Z" fill="#1D1D1B"/>
<path d="M80.019 42.2085V48.4023H79.1519V46.5973H77.4442C77.338 46.5973 77.2584 46.5943 77.2053 46.5884L75.9665 48.4023H75.0286L76.4001 46.438C75.9577 46.2905 75.6185 46.0457 75.3825 45.7036C75.1466 45.3555 75.0286 44.9338 75.0286 44.4383C75.0286 43.7363 75.2527 43.1906 75.7011 42.8013C76.1553 42.4061 76.7658 42.2085 77.5327 42.2085H80.019ZM75.9223 44.4294C75.9223 44.8895 76.055 45.2435 76.3204 45.4912C76.5918 45.7331 76.99 45.854 77.515 45.854H79.1519V42.9783H77.5681C77.0372 42.9783 76.6301 43.1022 76.347 43.3499C76.0638 43.5977 75.9223 43.9575 75.9223 44.4294Z" fill="#1D1D1B"/>
<path d="M87.5401 48.4731C86.9207 48.4731 86.3603 48.3374 85.8589 48.0661C85.3634 47.7888 84.9741 47.4113 84.691 46.9335C84.4078 46.4498 84.2662 45.9071 84.2662 45.3054C84.2662 44.7037 84.4078 44.164 84.691 43.6862C84.9741 43.2024 85.3664 42.8249 85.8678 42.5536C86.3692 42.2763 86.9296 42.1377 87.549 42.1377C88.0327 42.1377 88.4751 42.2203 88.8762 42.3854C89.2773 42.5447 89.6195 42.7836 89.9026 43.1022L89.3275 43.6596C88.8615 43.17 88.2804 42.9252 87.5844 42.9252C87.1242 42.9252 86.7084 43.0284 86.3367 43.2349C85.9651 43.4413 85.6731 43.7274 85.4608 44.0932C85.2543 44.453 85.1511 44.8571 85.1511 45.3054C85.1511 45.7537 85.2543 46.1607 85.4608 46.5265C85.6731 46.8863 85.9651 47.1694 86.3367 47.3759C86.7084 47.5824 87.1242 47.6856 87.5844 47.6856C88.2745 47.6856 88.8556 47.4378 89.3275 46.9423L89.9026 47.4998C89.6195 47.8183 89.2744 48.0602 88.8674 48.2253C88.4662 48.3905 88.0238 48.4731 87.5401 48.4731Z" fill="#1D1D1B"/>
<path d="M95.5298 42.9783H93.4062V48.4023H92.5391V42.9783H90.4243V42.2085H95.5298V42.9783Z" fill="#1D1D1B"/>
<path d="M99.5273 48.4731C98.902 48.4731 98.3386 48.3374 97.8372 48.0661C97.3358 47.7888 96.9406 47.4083 96.6516 46.9246C96.3684 46.4409 96.2268 45.9012 96.2268 45.3054C96.2268 44.7096 96.3684 44.1699 96.6516 43.6862C96.9406 43.2024 97.3358 42.8249 97.8372 42.5536C98.3386 42.2763 98.902 42.1377 99.5273 42.1377C100.147 42.1377 100.707 42.2763 101.208 42.5536C101.71 42.8249 102.102 43.2024 102.385 43.6862C102.668 44.164 102.81 44.7037 102.81 45.3054C102.81 45.9071 102.668 46.4498 102.385 46.9335C102.102 47.4113 101.71 47.7888 101.208 48.0661C100.707 48.3374 100.147 48.4731 99.5273 48.4731ZM99.5273 47.6856C99.9815 47.6856 100.388 47.5824 100.748 47.3759C101.114 47.1694 101.4 46.8863 101.607 46.5265C101.819 46.1607 101.925 45.7537 101.925 45.3054C101.925 44.8571 101.819 44.453 101.607 44.0932C101.4 43.7274 101.114 43.4413 100.748 43.2349C100.388 43.0284 99.9815 42.9252 99.5273 42.9252C99.073 42.9252 98.6601 43.0284 98.2885 43.2349C97.9228 43.4413 97.6337 43.7274 97.4214 44.0932C97.2149 44.453 97.1117 44.8571 97.1117 45.3054C97.1117 45.7537 97.2149 46.1607 97.4214 46.5265C97.6337 46.8863 97.9228 47.1694 98.2885 47.3759C98.6601 47.5824 99.073 47.6856 99.5273 47.6856Z" fill="#1D1D1B"/>
<path d="M110.204 48.4023L110.195 43.8897L107.957 47.6502H107.55L105.311 43.9162V48.4023H104.462V42.2085H105.187L107.771 46.5619L110.319 42.2085H111.045L111.054 48.4023H110.204Z" fill="#1D1D1B"/>
<path d="M117.229 46.8539H113.937L113.256 48.4023H112.344L115.149 42.2085H116.025L118.839 48.4023H117.91L117.229 46.8539ZM116.919 46.146L115.583 43.111L114.247 46.146H116.919Z" fill="#1D1D1B"/>
<path d="M124.074 42.9783H121.951V48.4023H121.084V42.9783H118.969V42.2085H124.074V42.9783Z" fill="#1D1D1B"/>
<path d="M128.072 48.4731C127.446 48.4731 126.883 48.3374 126.382 48.0661C125.88 47.7888 125.485 47.4083 125.196 46.9246C124.913 46.4409 124.771 45.9012 124.771 45.3054C124.771 44.7096 124.913 44.1699 125.196 43.6862C125.485 43.2024 125.88 42.8249 126.382 42.5536C126.883 42.2763 127.446 42.1377 128.072 42.1377C128.691 42.1377 129.252 42.2763 129.753 42.5536C130.254 42.8249 130.647 43.2024 130.93 43.6862C131.213 44.164 131.354 44.7037 131.354 45.3054C131.354 45.9071 131.213 46.4498 130.93 46.9335C130.647 47.4113 130.254 47.7888 129.753 48.0661C129.252 48.3374 128.691 48.4731 128.072 48.4731ZM128.072 47.6856C128.526 47.6856 128.933 47.5824 129.293 47.3759C129.659 47.1694 129.945 46.8863 130.151 46.5265C130.363 46.1607 130.47 45.7537 130.47 45.3054C130.47 44.8571 130.363 44.453 130.151 44.0932C129.945 43.7274 129.659 43.4413 129.293 43.2349C128.933 43.0284 128.526 42.9252 128.072 42.9252C127.618 42.9252 127.205 43.0284 126.833 43.2349C126.467 43.4413 126.178 43.7274 125.966 44.0932C125.759 44.453 125.656 44.8571 125.656 45.3054C125.656 45.7537 125.759 46.1607 125.966 46.5265C126.178 46.8863 126.467 47.1694 126.833 47.3759C127.205 47.5824 127.618 47.6856 128.072 47.6856Z" fill="#1D1D1B"/>
<path d="M137.895 42.2085V48.4023H137.027V42.9783H134.284L134.222 44.7922C134.193 45.6475 134.122 46.3407 134.01 46.8716C133.904 47.4025 133.733 47.8036 133.497 48.0749C133.261 48.3404 132.942 48.4731 132.541 48.4731C132.358 48.4731 132.173 48.4495 131.984 48.4023L132.046 47.6148C132.14 47.6384 132.235 47.6502 132.329 47.6502C132.583 47.6502 132.786 47.5499 132.939 47.3494C133.093 47.1429 133.208 46.8362 133.285 46.4291C133.361 46.0221 133.411 45.4853 133.435 44.8187L133.532 42.2085H137.895Z" fill="#1D1D1B"/>
<path d="M142.832 48.4731C142.207 48.4731 141.644 48.3374 141.142 48.0661C140.641 47.7888 140.246 47.4083 139.957 46.9246C139.673 46.4409 139.532 45.9012 139.532 45.3054C139.532 44.7096 139.673 44.1699 139.957 43.6862C140.246 43.2024 140.641 42.8249 141.142 42.5536C141.644 42.2763 142.207 42.1377 142.832 42.1377C143.452 42.1377 144.012 42.2763 144.513 42.5536C145.015 42.8249 145.407 43.2024 145.69 43.6862C145.973 44.164 146.115 44.7037 146.115 45.3054C146.115 45.9071 145.973 46.4498 145.69 46.9335C145.407 47.4113 145.015 47.7888 144.513 48.0661C144.012 48.3374 143.452 48.4731 142.832 48.4731ZM142.832 47.6856C143.286 47.6856 143.693 47.5824 144.053 47.3759C144.419 47.1694 144.705 46.8863 144.912 46.5265C145.124 46.1607 145.23 45.7537 145.23 45.3054C145.23 44.8571 145.124 44.453 144.912 44.0932C144.705 43.7274 144.419 43.4413 144.053 43.2349C143.693 43.0284 143.286 42.9252 142.832 42.9252C142.378 42.9252 141.965 43.0284 141.593 43.2349C141.228 43.4413 140.939 43.7274 140.726 44.0932C140.52 44.453 140.417 44.8571 140.417 45.3054C140.417 45.7537 140.52 46.1607 140.726 46.5265C140.939 46.8863 141.228 47.1694 141.593 47.3759C141.965 47.5824 142.378 47.6856 142.832 47.6856Z" fill="#1D1D1B"/>
<path d="M151.819 42.9783H148.634L148.643 48.4023H147.767V42.2085H151.828L151.819 42.9783Z" fill="#1D1D1B"/>
<path d="M153.103 42.2085H153.979V46.9866L157.642 42.2085H158.456V48.4023H157.589V43.6331L153.917 48.4023H153.103V42.2085Z" fill="#1D1D1B"/>
<path d="M165.148 42.2085V48.4023H164.281V46.5973H162.573C162.467 46.5973 162.387 46.5943 162.334 46.5884L161.095 48.4023H160.157L161.529 46.438C161.087 46.2905 160.747 46.0457 160.511 45.7036C160.275 45.3555 160.157 44.9338 160.157 44.4383C160.157 43.7363 160.382 43.1906 160.83 42.8013C161.284 42.4061 161.895 42.2085 162.662 42.2085H165.148ZM161.051 44.4294C161.051 44.8895 161.184 45.2435 161.449 45.4912C161.721 45.7331 162.119 45.854 162.644 45.854H164.281V42.9783H162.697C162.166 42.9783 161.759 43.1022 161.476 43.3499C161.193 43.5977 161.051 43.9575 161.051 44.4294Z" fill="#1D1D1B"/>
</svg>
