<svg viewBox="0 0 32 40" fill="none" xmlns="http://www.w3.org/2000/svg"><g clip-path="url(#clip0_298_13475)" fill="#B89A81"><path d="M16.403 13.336c4.467 0 8.099-3.655 8.11-8.157h-3.98c0 2.298-1.855 4.176-4.124 4.176-2.274 0-4.123-1.884-4.123-4.188h-3.98c0 4.502 3.625 8.17 8.097 8.17z"/><path d="M10.272 17.792c1.38-4.254-.971-8.839-5.248-10.237l-1.239 3.791c2.192.717 3.407 3.051 2.702 5.213-.705 2.157-3.063 3.336-5.26 2.625L0 22.969c4.283 1.398 8.892-.924 10.272-5.177z"/><path d="M12.618 24.99c-3.614-2.625-8.702-1.807-11.356 1.836l3.222 2.346c1.357-1.866 3.958-2.293 5.794-.96 1.837 1.339 2.228 3.945.871 5.812l3.217 2.34c2.648-3.638 1.866-8.744-1.748-11.375h-.006.006z"/><path d="M20.19 24.99c-3.614 2.624-4.402 7.718-1.76 11.362l3.223-2.34c-1.351-1.867-.954-4.473.882-5.806 1.843-1.333 4.443-.9 5.8.971l3.217-2.34c-2.642-3.643-7.737-4.478-11.357-1.854h-.006"/><path d="M22.535 17.785c1.38 4.248 5.978 6.576 10.267 5.19l-1.227-3.792c-2.192.711-4.55-.468-5.248-2.63-.7-2.168.515-4.508 2.713-5.22l-1.232-3.785c-4.284 1.387-6.647 5.972-5.273 10.225v.012z"/></g><defs><clipPath id="clip0_298_13475"><path fill="#fff" transform="translate(0 4)" d="M0 0h32v32H0z"/></clipPath></defs></svg>